<?xml version="1.0" encoding="UTF-8"?>
<svg width="73px" height="72px" viewBox="0 0 73 72" version="1.1" xmlns="http://www.w3.org/2000/svg" xmlns:xlink="http://www.w3.org/1999/xlink">
    <!-- Generator: Sketch 46.2 (44496) - http://www.bohemiancoding.com/sketch -->
    <title>face</title>
    <desc>Created with Sketch.</desc>
    <defs></defs>
    <g id="Page-1" stroke="none" stroke-width="1" fill="none" fill-rule="evenodd">
        <g id="face" transform="translate(3.000000, 3.000000)">
            <g id="Group">
                <g id="Shape">
                    <path d="M33.5,65.357 C15.564,65.357 0.973,50.765 0.973,32.83 C0.973,14.895 15.565,0.303 33.5,0.303 C51.435,0.303 66.027,14.895 66.027,32.83 C66.027,50.765 51.436,65.357 33.5,65.357 L33.5,65.357 Z" stroke="#0088CC" stroke-width="6" fill-opacity="0" fill="#FFFFFF" opacity="0.5"></path>
                    <path d="M40.088,48.915 C39.144,48.636 38.151,49.166 37.867,50.108 C37.227,52.237 35.225,53.723 33,53.723 C30.775,53.723 28.774,52.236 28.132,50.107 C27.848,49.166 26.855,48.63 25.911,48.916 C24.969,49.199 24.434,50.193 24.719,51.137 C25.81,54.759 29.216,57.288 33,57.288 C36.786,57.288 40.191,54.758 41.281,51.136 C41.564,50.193 41.03,49.199 40.088,48.915 L40.088,48.915 Z" fill="#0088CC"></path>
                    <path d="M53.7967187,27.0629549 C53.0146131,26.831803 52.1919108,27.2709089 51.9566164,28.0513575 C51.4263752,29.8152377 49.7677148,31.0463913 47.9242984,31.0463913 C46.080882,31.0463913 44.42305,29.8144092 43.8911519,28.050529 C43.6558574,27.2709089 42.8331552,26.8268319 42.0510496,27.0637834 C41.2706009,27.2982494 40.8273525,28.1217802 41.0634755,28.9038858 C41.9673709,31.9047191 44.7892478,34 47.9242984,34 C51.061006,34 53.8820544,31.9038906 54.7851213,28.9030573 C55.0195873,28.1217802 54.5771673,27.2982494 53.7967187,27.0629549 L53.7967187,27.0629549 Z" fill="#0088CC" transform="translate(47.923960, 30.500000) rotate(180.000000) translate(-47.923960, -30.500000) "></path>
                    <path d="M23.7967187,27.0629549 C23.0146131,26.831803 22.1919108,27.2709089 21.9566164,28.0513575 C21.4263752,29.8152377 19.7677148,31.0463913 17.9242984,31.0463913 C16.080882,31.0463913 14.42305,29.8144092 13.8911519,28.050529 C13.6558574,27.2709089 12.8331552,26.8268319 12.0510496,27.0637834 C11.2706009,27.2982494 10.8273525,28.1217802 11.0634755,28.9038858 C11.9673709,31.9047191 14.7892478,34 17.9242984,34 C21.061006,34 23.8820544,31.9038906 24.7851213,28.9030573 C25.0195873,28.1217802 24.5771673,27.2982494 23.7967187,27.0629549 L23.7967187,27.0629549 Z" fill="#0088CC" transform="translate(17.923960, 30.500000) rotate(180.000000) translate(-17.923960, -30.500000) "></path>
                </g>
            </g>
        </g>
    </g>
</svg>