<?xml version="1.0" encoding="UTF-8"?>
<svg width="73px" height="72px" viewBox="0 0 73 72" version="1.1" xmlns="http://www.w3.org/2000/svg" xmlns:xlink="http://www.w3.org/1999/xlink">
    <!-- Generator: Sketch 46.2 (44496) - http://www.bohemiancoding.com/sketch -->
    <title>face</title>
    <desc>Created with Sketch.</desc>
    <defs></defs>
    <g id="Page-1" stroke="none" stroke-width="1" fill="none" fill-rule="evenodd">
        <g id="face" transform="translate(3.000000, 3.000000)">
            <g id="Group">
                <g id="Shape">
                    <path d="M33.5,65.357 C15.564,65.357 0.973,50.765 0.973,32.83 C0.973,14.895 15.565,0.303 33.5,0.303 C51.435,0.303 66.027,14.895 66.027,32.83 C66.027,50.765 51.436,65.357 33.5,65.357 L33.5,65.357 Z" stroke="#0088CC" stroke-width="6" fill-opacity="0" fill="#FFFFFF" opacity="0.5"></path>
                    <path d="M40.088,48.915 C39.144,48.636 38.151,49.166 37.867,50.108 C37.227,52.237 35.225,53.723 33,53.723 C30.775,53.723 28.774,52.236 28.132,50.107 C27.848,49.166 26.855,48.63 25.911,48.916 C24.969,49.199 24.434,50.193 24.719,51.137 C25.81,54.759 29.216,57.288 33,57.288 C36.786,57.288 40.191,54.758 41.281,51.136 C41.564,50.193 41.03,49.199 40.088,48.915 L40.088,48.915 Z" fill="#0088CC"></path>
                    <path d="M51.7967187,20.0629549 C51.0146131,19.831803 50.1919108,20.2709089 49.9566164,21.0513575 C49.4263752,22.8152377 47.7677148,24.0463913 45.9242984,24.0463913 C44.080882,24.0463913 42.42305,22.8144092 41.8911519,21.050529 C41.6558574,20.2709089 40.8331552,19.8268319 40.0510496,20.0637834 C39.2706009,20.2982494 38.8273525,21.1217802 39.0634755,21.9038858 C39.9673709,24.9047191 42.7892478,27 45.9242984,27 C49.061006,27 51.8820544,24.9038906 52.7851213,21.9030573 C53.0195873,21.1217802 52.5771673,20.2982494 51.7967187,20.0629549 L51.7967187,20.0629549 Z" fill="#0088CC" transform="translate(45.923960, 23.500000) rotate(180.000000) translate(-45.923960, -23.500000) "></path>
                    <path d="M25.7967187,20.0629549 C25.0146131,19.831803 24.1919108,20.2709089 23.9566164,21.0513575 C23.4263752,22.8152377 21.7677148,24.0463913 19.9242984,24.0463913 C18.080882,24.0463913 16.42305,22.8144092 15.8911519,21.050529 C15.6558574,20.2709089 14.8331552,19.8268319 14.0510496,20.0637834 C13.2706009,20.2982494 12.8273525,21.1217802 13.0634755,21.9038858 C13.9673709,24.9047191 16.7892478,27 19.9242984,27 C23.061006,27 25.8820544,24.9038906 26.7851213,21.9030573 C27.0195873,21.1217802 26.5771673,20.2982494 25.7967187,20.0629549 L25.7967187,20.0629549 Z" fill="#0088CC" transform="translate(19.923960, 23.500000) rotate(180.000000) translate(-19.923960, -23.500000) "></path>
                </g>
            </g>
        </g>
    </g>
</svg>