<?xml version="1.0" encoding="UTF-8"?>
<svg width="32px" height="32px" viewBox="0 0 32 32" version="1.1" xmlns="http://www.w3.org/2000/svg" xmlns:xlink="http://www.w3.org/1999/xlink">
    <!-- Generator: Sketch 41 (35326) - http://www.bohemiancoding.com/sketch -->
    <title>facebook</title>
    <desc>Created with Sketch.</desc>
    <defs></defs>
    <g id="Page-1" stroke="none" stroke-width="1" fill="none" fill-rule="evenodd">
        <g id="facebook">
            <g id="Layer_1">
                <path d="M30.1568494,31.9143784 C31.1272278,31.9143784 31.9141313,31.1274749 31.9141313,30.1568494 L31.9141313,1.83005405 C31.9141313,0.859305019 31.1273514,0.0726486486 30.1568494,0.0726486486 L1.83005405,0.0726486486 C0.859305019,0.0726486486 0.0726486486,0.859305019 0.0726486486,1.83005405 L0.0726486486,30.1568494 C0.0726486486,31.1273514 0.859181467,31.9143784 1.83005405,31.9143784 L30.1568494,31.9143784 Z" id="Blue_1_" fill="#3C5A99"></path>
                <path d="M22.0428108,31.9143784 L22.0428108,19.5835058 L26.1816834,19.5835058 L26.8014208,14.7779459 L22.0428108,14.7779459 L22.0428108,11.7098996 C22.0428108,10.3185792 22.4291583,9.37044015 24.424278,9.37044015 L26.9689575,9.36932819 L26.9689575,5.07119691 C26.5288649,5.0126332 25.0183166,4.88179151 23.2609112,4.88179151 C19.5920309,4.88179151 17.0802162,7.1212973 17.0802162,11.2339768 L17.0802162,14.7779459 L12.9307181,14.7779459 L12.9307181,19.5835058 L17.0802162,19.5835058 L17.0802162,31.9143784 L22.0428108,31.9143784 Z" id="f" fill="#FFFFFF"></path>
            </g>
        </g>
    </g>
</svg>