<?xml version="1.0" encoding="UTF-8"?>
<svg width="45px" height="38px" viewBox="0 0 45 38" version="1.1" xmlns="http://www.w3.org/2000/svg" xmlns:xlink="http://www.w3.org/1999/xlink">
    <!-- Generator: Sketch 46.2 (44496) - http://www.bohemiancoding.com/sketch -->
    <title>feedback</title>
    <desc>Created with Sketch.</desc>
    <defs></defs>
    <g id="Page-1" stroke="none" stroke-width="1" fill="none" fill-rule="evenodd">
        <g id="feedback" fill="#0088CC">
            <g id="Group">
                <g id="noun_20940">
                    <path d="M42.88,4.416 C43.207,3.31 42.833,2.114 41.927,1.394 C41.413,0.983 40.791,0.776 40.16,0.776 C39.662,0.776 39.164,0.906 38.717,1.173 C37.829,1.694 36.9,2.112 35.93,2.407 C34.076,0.989 31.777,0.2 29.414,0.2 C23.998,0.2 19.511,4.24 18.804,9.464 C14.486,8.54 10.552,6.161 7.718,2.685 C7.178,2.019 6.368,1.639 5.522,1.639 C5.451,1.639 5.376,1.644 5.3,1.649 C4.372,1.722 3.543,2.245 3.074,3.047 C2.122,4.678 1.621,6.538 1.621,8.433 C1.621,9.713 1.848,10.958 2.268,12.121 C1.816,12.635 1.554,13.301 1.554,14.005 C1.554,16.813 2.614,19.395 4.38,21.335 C4.271,21.819 4.288,22.331 4.447,22.821 C5.058,24.735 6.176,26.382 7.622,27.639 C6.683,27.852 5.711,27.961 4.725,27.961 C4.214,27.961 3.697,27.928 3.176,27.869 C3.066,27.855 2.956,27.848 2.844,27.848 C1.658,27.848 0.584,28.59 0.181,29.733 C-0.266,30.973 0.207,32.36 1.315,33.073 C5.386,35.68 10.09,37.059 14.917,37.059 C30.572,37.059 39.98,24.459 40.149,12.16 C41.423,11.075 42.543,9.826 43.493,8.432 C43.852,7.958 44.065,7.369 44.065,6.724 C44.065,5.775 43.597,4.933 42.88,4.416 L42.88,4.416 Z M37.292,10.801 C37.31,11.138 37.317,11.478 37.317,11.819 C37.317,22.223 29.398,34.219 14.917,34.219 C10.472,34.219 6.333,32.916 2.847,30.682 C3.46,30.75 4.09,30.793 4.725,30.793 C8.414,30.793 11.808,29.533 14.504,27.42 C11.055,27.359 8.15,25.08 7.147,21.953 C7.628,22.045 8.122,22.096 8.625,22.096 C9.345,22.096 10.041,21.998 10.7,21.819 C7.098,21.092 4.383,17.914 4.383,14.096 L4.383,13.998 C5.445,14.586 6.66,14.94 7.95,14.98 C5.838,13.568 4.45,11.156 4.45,8.426 C4.45,6.984 4.838,5.633 5.516,4.47 C9.396,9.233 15.199,12.366 21.743,12.694 C21.607,12.12 21.541,11.516 21.541,10.899 C21.541,6.555 25.065,3.03 29.411,3.03 C31.677,3.03 33.724,3.986 35.16,5.513 C36.951,5.162 38.638,4.507 40.159,3.604 C39.57,5.441 38.321,6.984 36.698,7.958 C38.289,7.77 39.804,7.347 41.218,6.718 C40.165,8.305 38.832,9.691 37.292,10.801 L37.292,10.801 Z" id="Shape"></path>
                </g>
            </g>
        </g>
    </g>
</svg>