<?xml version="1.0" encoding="UTF-8"?>
<svg width="76px" height="28px" viewBox="0 0 76 28" version="1.1" xmlns="http://www.w3.org/2000/svg" xmlns:xlink="http://www.w3.org/1999/xlink">
    <!-- Generator: Sketch 46.2 (44496) - http://www.bohemiancoding.com/sketch -->
    <title>glasses</title>
    <desc>Created with Sketch.</desc>
    <defs>
        <path d="M31.401592,3.86716791 C33.3479294,4.55053837 36.4834391,4.54285141 36.726347,4.54054533 C36.9707922,4.54208272 40.1063019,4.55053837 42.053408,3.86716791 C44.0773837,3.15612441 49.7972483,0.583299967 58.6341738,0.255066911 C66.2127445,-0.0262757075 71.1961986,1.18057651 72.6390404,2.01999219 C72.9411378,2.21754698 73.1417674,2.55884786 73.1417674,2.94627049 L73.1417674,7.1249002 C73.1417674,7.70603414 72.8696491,8.17186372 72.1224769,8.83140461 C70.7726473,9.8299403 70.7518925,11.207443 70.4797743,13.4212865 C70.0531482,16.9050153 69.7172282,24.5274017 58.2513634,25.6489287 C47.4596447,26.7058853 42.8728376,20.8607233 41.2032306,16.5091371 C39.5589905,12.2205839 39.5951192,10.1120516 36.7255783,10.1043647 C33.856806,10.1120516 33.8952408,12.2205839 32.2494633,16.5091371 C30.580625,20.8599546 25.9945866,26.7058853 15.2020992,25.6489287 C3.73777185,24.526633 3.40108314,16.9042466 2.97368834,13.4205178 C2.70157007,11.2066743 2.68235268,9.82917161 1.33175437,8.83063592 C0.584582168,8.17109502 0.313232593,7.70526544 0.313232593,7.12413151 L0.313232593,2.94550179 C0.313232593,2.55807917 0.513862166,2.21677829 0.815190872,2.0192235 C2.25880136,1.17980781 7.24148676,-0.0270444032 14.8192888,0.254298216 C23.6577517,0.583299967 29.3768476,3.15535571 31.401592,3.86716791 Z M68.212122,13.0061909 C68.282842,3.31908789 62.4891827,2.70874352 55.9398955,3.18226006 C40.7381697,4.28149488 42.2486567,7.40163065 42.7636828,13.2798465 C43.2679472,19.0289215 48.1053491,24.3075547 56.2850398,24.3075547 C62.852007,24.3075547 68.1575446,20.5855303 68.212122,13.0061909 Z M5.24364668,13.0061909 C5.29822408,20.5855303 10.6022243,24.3075547 17.1691915,24.3075547 C25.3511883,24.3075547 30.1870528,19.0296902 30.6913172,13.2798465 C31.2063433,7.40163065 32.7160616,4.28072619 17.5151045,3.18226006 C10.9658173,2.70874352 5.17292668,3.31908789 5.24364668,13.0061909 Z" id="path-1"></path>
    </defs>
    <g id="Page-1" stroke="none" stroke-width="1" fill="none" fill-rule="evenodd">
        <g id="glasses" transform="translate(1.000000, 1.000000)">
            <g id="Combined-Shape">
                <use fill="#0088CC" fill-rule="evenodd" xlink:href="#path-1"></use>
                <path stroke="#0088CC" stroke-width="1" d="M31.5674211,3.39546812 L31.5672319,3.39540163 C32.374326,3.6787771 33.4797552,3.86320891 34.7419765,3.96252598 C35.5403455,4.02534513 36.2674137,4.04487976 36.7294915,4.04055522 C37.2188337,4.04363284 37.9150326,4.02486957 38.7122143,3.96223335 C39.9750481,3.86300987 41.0804633,3.67873916 41.8876823,3.39543178 C42.1314139,3.30980637 43.4468722,2.81192365 43.820975,2.67490605 C44.8509054,2.2976873 45.8288439,1.96903666 46.88974,1.65515722 C50.4838108,0.591806299 54.3296719,-0.0853942374 58.6156249,-0.244588907 C65.1777738,-0.48819845 70.8472533,0.399106536 72.9126938,1.60152614 C73.36319,1.89612543 73.6417674,2.39817371 73.6417674,2.94627049 L73.6417674,7.1249002 C73.6417674,7.8782112 73.2927395,8.46532605 72.4198334,9.23337372 C71.5727512,9.86000227 71.3238958,10.5401211 71.0934233,12.4854275 C71.0967062,12.4577173 71.005496,13.242639 70.9760667,13.4820637 C70.9709763,13.5237873 70.9709763,13.5237873 70.9658799,13.5661368 C70.607182,16.555992 70.4704516,17.3288257 69.8263748,18.9261324 C68.1977886,22.9650163 64.6278003,25.5276074 58.3001009,26.1465477 C48.9605735,27.0612745 43.1802033,23.0576314 40.7363683,16.688133 C40.3690406,15.7300586 39.4987928,13.1597622 39.3797522,12.8470823 C38.7195773,11.1130239 38.1615082,10.608213 36.726918,10.6043629 C35.2911666,10.60821 34.7339244,11.112155 34.0745993,12.8437958 C33.956735,13.1533527 33.0850571,15.7272958 32.7162996,16.688201 C30.2732903,23.0573547 24.4932683,27.0612465 15.1533848,26.1465499 C8.82673307,25.5272049 5.2570441,22.9645971 3.6280417,18.9258864 C2.98375467,17.3285353 2.84720837,16.5574136 2.48761621,13.5654916 C2.48250964,13.5231341 2.48250964,13.5231341 2.4774232,13.4815171 C2.44775516,13.24015 2.35545276,12.4450416 2.35972567,12.4811518 C2.12977046,10.5378113 1.88128623,9.8587336 1.00086703,9.20548731 C0.161930189,8.4649443 -0.186767407,7.87768601 -0.186767407,7.12413151 L-0.186767407,2.94550179 C-0.186767407,2.39778694 0.0914491131,1.8958405 0.563856642,1.58698386 C2.6082474,0.398232686 8.27654971,-0.488959896 14.8378878,-0.24535574 C19.1249326,-0.0857753636 22.9713691,0.591590515 26.5653575,1.65493686 C27.6262731,1.96882789 28.6042906,2.29751814 29.633903,2.67466086 C30.010496,2.81260532 31.3245155,3.31007307 31.5674211,3.39546812 Z M67.712135,13.0025905 C67.6629201,19.837213 63.1087286,23.8075547 56.2850398,23.8075547 C48.9140957,23.8075547 43.7897955,19.2561257 43.2617705,13.2361581 C43.2361344,12.9435623 43.2080527,12.6549927 43.1679261,12.2635245 C42.7953951,8.62918064 42.8906659,7.63479699 44.0654555,6.5302074 C45.6158424,5.07246436 49.185855,4.17194933 55.9759563,3.68095799 C64.3765532,3.07359088 67.7703112,5.03371641 67.7121353,13.0025407 L67.712135,13.0025905 Z M5.74363336,13.0025407 L5.74363372,13.0025905 C5.79285057,19.8374941 10.3459072,23.8075547 17.1691915,23.8075547 C24.5420896,23.8075547 29.6651787,19.2572254 30.1932253,13.2362057 C30.2188494,12.9437475 30.2469108,12.6553482 30.2870042,12.2641303 C30.6595027,8.62942062 30.5642113,7.63479555 29.3894019,6.53005513 C27.8389977,5.07212162 24.2689798,4.17161886 17.4790484,3.68095832 C9.07873137,3.07361146 5.68545686,5.03362458 5.74363336,13.0025407 Z"></path>
            </g>
        </g>
    </g>
</svg>