<?xml version="1.0" encoding="UTF-8"?>
<svg width="78px" height="30px" viewBox="0 0 78 30" version="1.1" xmlns="http://www.w3.org/2000/svg" xmlns:xlink="http://www.w3.org/1999/xlink">
    <!-- Generator: Sketch 46.2 (44496) - http://www.bohemiancoding.com/sketch -->
    <title>glasses</title>
    <desc>Created with Sketch.</desc>
    <defs>
        <path d="M31.401592,3.86716791 C33.3479294,4.55053837 36.4834391,4.54285141 36.726347,4.54054533 C36.9707922,4.54208272 40.1063019,4.55053837 42.053408,3.86716791 C44.0773837,3.15612441 49.7972483,0.583299967 58.6341738,0.255066911 C66.2127445,-0.0262757075 71.1961986,1.18057651 72.6390404,2.01999219 C72.9411378,2.21754698 73.1417674,2.55884786 73.1417674,2.94627049 L73.1417674,7.1249002 C73.1417674,7.70603414 72.8696491,8.17186372 72.1224769,8.83140461 C70.7726473,9.8299403 70.7518925,11.207443 70.4797743,13.4212865 C70.0531482,16.9050153 69.7172282,24.5274017 58.2513634,25.6489287 C47.4596447,26.7058853 42.8728376,20.8607233 41.2032306,16.5091371 C39.5589905,12.2205839 39.5951192,10.1120516 36.7255783,10.1043647 C33.856806,10.1120516 33.8952408,12.2205839 32.2494633,16.5091371 C30.580625,20.8599546 25.9945866,26.7058853 15.2020992,25.6489287 C3.73777185,24.526633 3.40108314,16.9042466 2.97368834,13.4205178 C2.70157007,11.2066743 2.68235268,9.82917161 1.33175437,8.83063592 C0.584582168,8.17109502 0.313232593,7.70526544 0.313232593,7.12413151 L0.313232593,2.94550179 C0.313232593,2.55807917 0.513862166,2.21677829 0.815190872,2.0192235 C2.25880136,1.17980781 7.24148676,-0.0270444032 14.8192888,0.254298216 C23.6577517,0.583299967 29.3768476,3.15535571 31.401592,3.86716791 L31.401592,3.86716791 L31.401592,3.86716791 Z" id="path-1"></path>
    </defs>
    <g id="Page-1" stroke="none" stroke-width="1" fill="none" fill-rule="evenodd">
        <g id="glasses" transform="translate(2.000000, 2.000000)">
            <g id="Shape">
                <use fill="#0088CC" fill-rule="evenodd" xlink:href="#path-1"></use>
                <path stroke="#0088CC" stroke-width="2" d="M31.7332503,2.92376834 L31.7328718,2.92363535 C32.4906946,3.18971136 33.5584265,3.36785369 34.7811975,3.46406664 C35.5634786,3.52561992 36.2763299,3.54477258 36.7326361,3.5405651 C37.2089637,3.54356088 37.8917272,3.5251597 38.673049,3.46376963 C39.896433,3.3676458 40.9641584,3.18965793 41.7219565,2.92369566 C41.9588994,2.84045519 43.2698781,2.34426796 43.6490175,2.20540569 C44.6882539,1.82477856 45.6759776,1.49283943 46.7478871,1.17570156 C50.3803319,0.100997177 54.2671605,-0.583417143 58.597076,-0.744244725 C65.2452051,-0.991046153 71.0002362,-0.0903518661 73.1863472,1.1830601 C73.7764152,1.56893155 74.1417674,2.22736411 74.1417674,2.94627049 L74.1417674,7.1249002 C74.1417674,8.04634438 73.7208883,8.75432318 72.7171898,9.63534282 C72.0141326,10.1554289 71.8053751,10.7259607 71.5899506,12.5442541 C71.5934063,12.5150861 71.5020005,13.3016907 71.472359,13.5428409 C71.4673485,13.5839099 71.4673485,13.5839099 71.4623199,13.6256956 C71.4573646,13.6670003 71.3636547,14.4791971 71.3303748,14.7456992 C71.2699618,15.22948 71.2080495,15.6540564 71.1332962,16.0765804 C70.9398775,17.1698299 70.6732742,18.1628357 70.2900954,19.1131169 C68.5903551,23.3284626 64.8582036,26.0074569 58.3488384,26.6441667 C48.773975,27.5819427 42.7904438,23.4375847 40.2695059,16.867129 C39.8975138,15.8968888 39.0270148,13.3258503 38.9124708,13.0249814 C38.3189174,11.4659154 37.922772,11.1075753 36.7282578,11.1043611 C35.5298704,11.1075722 35.1345707,11.4650636 34.5418743,13.0217116 C34.4285119,13.3194447 33.5565531,15.8942175 33.1831359,16.8672648 C30.6630805,23.4372849 24.6798885,27.5819151 15.1046704,26.6441712 C8.59631439,26.0070383 4.86449868,23.3280429 3.16434048,19.112919 C2.78102701,18.1625876 2.51427557,17.1695318 2.32066949,16.076175 C2.24584964,15.6536429 2.18386738,15.2290682 2.12335842,14.7452107 C2.09006147,14.4789529 1.99631069,13.6677716 1.99118882,13.625156 C1.98615035,13.5833635 1.98615035,13.5833635 1.98115806,13.5425163 C1.95124676,13.2991702 1.85874076,12.502308 1.86318982,12.5399068 C1.64827116,10.7236395 1.43991573,10.154229 0.669979686,9.58033871 C-0.266234919,8.75392705 -0.686767407,8.04568819 -0.686767407,7.12413151 L-0.686767407,2.94550179 C-0.686767407,2.22716147 -0.321967135,1.5690043 0.312522411,1.15474422 C2.45531699,-0.0912257897 8.20915653,-0.991806505 14.8564869,-0.745009695 C19.1874663,-0.583793903 23.0748591,0.100784482 26.7072129,1.17548191 C27.7791449,1.49263235 28.7669533,1.82461309 29.8058768,2.20516646 C30.1874874,2.34494882 31.4970992,2.84074787 31.7332503,2.92376834 Z"></path>
            </g>
            <path d="M68.212122,13.0061909 C68.282842,3.31908789 62.4891827,2.70874352 55.9398955,3.18226006 C40.7381697,4.28149488 42.2486567,7.40163065 42.7636828,13.2798465 C43.2679472,19.0289215 48.1053491,24.3075547 56.2850398,24.3075547 C62.852007,24.3075547 68.1575446,20.5855303 68.212122,13.0061909 L68.212122,13.0061909 L68.212122,13.0061909 Z" id="Path" fill="#FFFFFF"></path>
            <path d="M5.24364668,13.0061909 C5.29822408,20.5855303 10.6022243,24.3075547 17.1691915,24.3075547 C25.3511883,24.3075547 30.1870528,19.0296902 30.6913172,13.2798465 C31.2063433,7.40163065 32.7160616,4.28072619 17.5151045,3.18226006 C10.9658173,2.70874352 5.17292668,3.31908789 5.24364668,13.0061909 L5.24364668,13.0061909 L5.24364668,13.0061909 Z" id="Path" fill="#FFFFFF"></path>
        </g>
    </g>
</svg>