<?xml version="1.0" encoding="UTF-8"?>
<svg width="96px" height="96px" viewBox="0 0 96 96" version="1.1" xmlns="http://www.w3.org/2000/svg" xmlns:xlink="http://www.w3.org/1999/xlink">
    <!-- Generator: Sketch 51.2 (57519) - http://www.bohemiancoding.com/sketch -->
    <title>imprint</title>
    <desc>Created with Sketch.</desc>
    <defs></defs>
    <g id="Page-1" stroke="none" stroke-width="1" fill="none" fill-rule="evenodd">
        <g id="imprint" transform="translate(3.000000, 3.000000)">
            <g id="Group">
                <g id="Group-2" opacity="0.5" transform="translate(31.000000, 17.000000)" fill="#0088CC">
                    <path d="M23.367,52.743 C21.05,53.658 19.209,54.35 17.824,54.83 C16.444,55.31 14.841,55.553 13.017,55.553 C10.212,55.553 8.033,54.865 6.477,53.496 C4.922,52.129 4.148,50.394 4.148,48.288 C4.148,47.472 4.205,46.635 4.32,45.779 C4.439,44.927 4.625,43.965 4.882,42.888 L7.78,32.646 C8.037,31.664 8.256,30.732 8.43,29.86 C8.605,28.982 8.691,28.178 8.691,27.451 C8.691,26.147 8.42,25.232 7.883,24.721 C7.34,24.204 6.314,23.951 4.788,23.951 C4.04,23.951 3.27,24.064 2.481,24.295 C1.7,24.531 1.022,24.753 0.464,24.967 L1.231,21.808 C3.128,21.036 4.944,20.376 6.677,19.827 C8.41,19.275 10.047,18.999 11.592,18.999 C14.378,18.999 16.525,19.672 18.038,21.017 C19.541,22.36 20.301,24.11 20.301,26.261 C20.301,26.706 20.248,27.49 20.145,28.612 C20.041,29.736 19.847,30.762 19.564,31.697 L16.681,41.906 C16.447,42.722 16.235,43.662 16.045,44.713 C15.858,45.76 15.766,46.561 15.766,47.096 C15.766,48.455 16.067,49.377 16.677,49.867 C17.28,50.36 18.332,50.607 19.828,50.607 C20.531,50.607 21.319,50.481 22.213,50.238 C23.098,49.992 23.738,49.776 24.14,49.59 L23.367,52.743 L23.367,52.743 Z" id="Shape"></path>
                    <path d="M22.858,11.302 C21.515,12.554 19.892,13.177 18,13.177 C16.109,13.177 14.48,12.554 13.122,11.302 C11.775,10.052 11.091,8.538 11.091,6.76 C11.091,4.988 11.776,3.46 13.122,2.201 C14.48,0.936 16.109,0.307 18,0.307 C19.893,0.307 21.516,0.935 22.858,2.201 C24.201,3.46 24.878,4.988 24.878,6.76 C24.878,8.538 24.201,10.052 22.858,11.302 L22.858,11.302 Z" id="Shape"></path>
                </g>
                <path d="M45,0 C20.148,0 0,20.147 0,45 C0,69.854 20.148,90 45,90 C69.852,90 90,69.854 90,45 C90,20.147 69.852,0 45,0 L45,0 Z M45,88.096 C21.235,88.096 1.905,68.764 1.905,45 C1.905,21.237 21.235,1.905 45,1.905 C68.766,1.905 88.096,21.237 88.096,45 C88.096,68.764 68.766,88.096 45,88.096 L45,88.096 Z" id="Shape" stroke="#4375A7" stroke-width="5" fill="#4375A7"></path>
            </g>
        </g>
    </g>
</svg>