<?xml version="1.0" encoding="UTF-8"?>
<svg width="64px" height="92px" viewBox="0 0 64 92" version="1.1" xmlns="http://www.w3.org/2000/svg" xmlns:xlink="http://www.w3.org/1999/xlink">
    <!-- Generator: Sketch 46.2 (44496) - http://www.bohemiancoding.com/sketch -->
    <title>more</title>
    <desc>Created with Sketch.</desc>
    <defs></defs>
    <g id="Page-1" stroke="none" stroke-width="1" fill="none" fill-rule="evenodd">
        <g id="more" transform="translate(0.000000, -1.000000)" fill="#0088CC">
            <g id="Group">
                <g transform="translate(0.000000, 0.637820)" id="Shape">
                    <path d="M10,0.36219 C4.60952,0.36219 0,4.28088 0,9.36219 L0,87.3622 C0.00026,88.5146 0.26215,89.9825 1.40625,91.0809 C2.55034,92.1793 3.94413,92.3619 5,92.3622 C5.59243372,92.352527 6.16873978,92.1676567 6.65625,91.8309 L32,74.9247 L57.34375,91.8309 C57.8312602,92.1676567 58.4075663,92.352527 59,92.3622 C60.05586,92.3619 61.44965,92.1793 62.59375,91.0809 C63.73785,89.9825 63.99974,88.5146 64,87.3622 L64,9.36219 C64,4.28088 59.39047,0.36219 54,0.36219 L10,0.36219 Z M10.971353,8.10000034 L53.028647,8.10000034 C55.6000586,8.10000034 56.8520374,9.56847855 56.8520374,10.9675431 L56.8520374,83.3430897 L33.5831226,67.8404843 C32.6233453,67.2050708 31.3766547,67.2050708 30.4168774,67.8404843 L7.14796263,83.3430897 L7.14796263,10.9675431 C7.14796263,9.56847855 8.39992225,8.10000034 10.971353,8.10000034 Z"></path>
                </g>
            </g>
        </g>
    </g>
</svg>