<?xml version="1.0" encoding="UTF-8"?>
<svg width="88px" height="87px" viewBox="0 0 88 87" version="1.1" xmlns="http://www.w3.org/2000/svg" xmlns:xlink="http://www.w3.org/1999/xlink">
    <!-- Generator: Sketch 51.2 (57519) - http://www.bohemiancoding.com/sketch -->
    <title>raceday-icon</title>
    <desc>Created with Sketch.</desc>
    <defs></defs>
    <g id="Page-1" stroke="none" stroke-width="1" fill="none" fill-rule="evenodd">
        <g id="raceday-icon" transform="translate(0.000000, -1.000000)">
            <path d="M43.6203922,68.9868235 L43.1148235,68.9868235 C42.2054902,65.2545882 38.4680784,62.6283922 34.2837647,63.5791373 C31.6334118,64.1830588 29.4782745,66.3312941 28.870902,68.9781961 C27.7648627,73.7871373 31.3866667,78.0577255 36.0075294,78.0577255 C39.1461961,78.0577255 41.806902,76.0751373 42.852549,73.300549 L43.6203922,73.300549 C62.1107451,73.300549 73.1297255,76.5461961 74.4945882,78.4804706 C73.131451,80.4130196 62.1435294,83.6517647 43.6980392,83.6603922 C25.3008627,83.6517647 14.3232941,80.4302745 12.9118431,78.496 C13.4174118,77.9127843 15.6053333,76.5410196 21.5323922,75.2607059 C21.7342745,75.2175686 24.0136471,74.7896471 24.5675294,74.6895686 C24.7607843,74.6550588 24.8815686,74.4721569 24.8505098,74.278902 L24.2741961,70.8313725 C24.2310588,70.5811765 24.0067451,70.4086275 23.756549,70.4465882 C22.9541961,70.572549 19.0614902,71.3938824 18.3385098,71.5854118 C11.6660392,73.297098 8.52564706,75.5091765 8.52564706,78.4804706 C8.52564706,81.6933333 12.2509804,84.0796863 19.9138824,85.7775686 C26.2740392,87.1855686 34.6875294,87.9654902 43.6203922,87.9741176 C52.708549,87.9654902 61.1220392,87.1855686 67.4804706,85.7775686 C75.145098,84.0796863 78.8687059,81.6933333 78.8687059,78.4804706 C78.8687059,75.2676078 75.145098,72.8812549 67.4821961,71.185098 C61.0840784,69.7667451 52.6101961,68.9868235 43.6203922,68.9868235 Z" id="Fill-12" fill-opacity="0.5" fill="#0088CC"></path>
            <path d="M49.9287843,49.4767059 C47.1662745,53.6627451 41.2219608,53.9612549 38.0539608,50.072 C36.0782745,47.6494118 35.900549,44.0828235 37.6208627,41.4738824 C40.3833725,37.2878431 46.3276863,36.9893333 49.4974118,40.8768627 C51.4713725,43.3011765 51.649098,46.8677647 49.9287843,49.4767059 Z M51.6076863,60.5664314 C53.8335686,59.4120784 55.8627451,57.7676863 57.4778039,55.5659608 C62.564549,48.6260392 61.5741176,38.6268235 55.1915294,32.8550588 C48.220549,26.5483922 37.4569412,27.0867451 31.152,34.059451 C26.2412549,39.4895686 25.5027451,47.2128627 28.7018039,53.3452549 L36.3094902,68.0015686 C36.4337255,68.2414118 36.7305098,68.3345882 36.9703529,68.2086275 L51.6076863,60.5664314 Z" id="Fill-14" fill="#4375A7"></path>
            <path d="M74.014902,52.4928627 C74.2823529,52.5567059 74.5567059,52.3858824 74.617098,52.1167059 C75.1295686,49.8183529 75.3883922,47.5303529 75.3883922,45.3061961 C75.3883922,27.9356863 61.254902,13.8021961 43.8843922,13.8021961 C26.5138824,13.8021961 12.3803922,27.9356863 12.3803922,45.3061961 C12.3803922,47.5407059 12.6426667,49.8425098 13.1603137,52.1546667 C13.2207059,52.4238431 13.4950588,52.5946667 13.7642353,52.5308235 L17.0064314,51.7560784 C17.2652549,51.6939608 17.420549,51.4368627 17.3618824,51.1780392 C16.9184314,49.1868235 16.6941176,47.2128627 16.6941176,45.3061961 C16.6941176,30.3134118 28.8916078,18.1159216 43.8843922,18.1159216 C58.8771765,18.1159216 71.0746667,30.3134118 71.0746667,45.3061961 C71.0746667,47.2042353 70.8538039,49.1643922 70.4155294,51.1435294 C70.3585882,51.4023529 70.5138824,51.659451 70.7709804,51.7198431 L74.014902,52.4928627 Z" id="Fill-13" fill-opacity="0.5" fill="#0088CC"></path>
            <path d="M43.8843922,1.57537255 C19.7706667,1.57537255 0.151843137,21.1924706 0.151843137,45.3061961 C0.151843137,48.5432157 0.517647059,51.7974902 1.24062745,54.9861961 C1.30101961,55.2553725 1.57364706,55.4227451 1.84109804,55.358902 L5.08501961,54.5858824 C5.34384314,54.5237647 5.49913725,54.2683922 5.44219608,54.0095686 C4.79341176,51.1400784 4.46556863,48.2153725 4.46556863,45.3061961 C4.46556863,23.5719216 22.1483922,5.88909804 43.8843922,5.88909804 C65.6186667,5.88909804 83.3014902,23.5719216 83.3014902,45.3061961 C83.3014902,48.2032941 82.977098,51.1176471 82.3334902,53.9750588 C82.276549,54.2338824 82.4318431,54.4875294 82.6889412,54.5479216 L85.9380392,55.3192157 C86.2054902,55.3830588 86.4763922,55.2139608 86.5367843,54.9465098 C87.2528627,51.7716078 87.6152157,48.5294118 87.6152157,45.3061961 C87.6152157,21.1924706 67.9981176,1.57537255 43.8843922,1.57537255" id="Fill-11" fill-opacity="0.5" fill="#0088CC"></path>
        </g>
    </g>
</svg>