<?xml version="1.0" encoding="UTF-8"?>
<svg width="954px" height="159px" viewBox="0 0 954 159" version="1.1" xmlns="http://www.w3.org/2000/svg" xmlns:xlink="http://www.w3.org/1999/xlink">
    <!-- Generator: Sketch 51.2 (57519) - http://www.bohemiancoding.com/sketch -->
    <title>runverter-logo.svg</title>
    <desc>Created with Sketch.</desc>
    <defs></defs>
    <g id="Page-1" stroke="none" stroke-width="1" fill="none" fill-rule="evenodd">
        <g id="runverter-logo.svg" transform="translate(0.490000, -0.289000)" fill="#4375A7">
            <g id="shoe" transform="translate(0.262100, 0.246155)">
                <path d="M3.43005764,97.8601153 L20.5803458,97.8601153 C22.6383804,97.8601153 24.0104035,96.4880922 24.0104035,94.4300576 C24.0104035,92.3720231 22.6383804,91 20.5803458,91 L3.43005764,91 C1.37202306,91 0,92.3720231 0,94.4300576 C0,96.4880922 1.37202306,97.8601153 3.43005764,97.8601153 L3.43005764,97.8601153 Z" id="Shape"></path>
                <path d="M3.43005764,115.010403 L37.7306341,115.010403 C39.7886686,115.010403 41.1606917,113.63838 41.1606917,111.580346 C41.1606917,109.522311 39.7886686,108.150288 37.7306341,108.150288 L3.43005764,108.150288 C1.37202306,108.150288 0,109.522311 0,111.580346 C0,113.63838 1.37202306,115.010403 3.43005764,115.010403 L3.43005764,115.010403 Z" id="Shape"></path>
                <path d="M54.8809223,125.300576 L3.43005764,125.300576 C1.37202306,125.300576 0,126.672599 0,128.730634 C0,130.788669 1.37202306,132.160692 3.43005764,132.160692 L54.8809223,132.160692 C56.9389568,132.160692 58.3109799,130.788669 58.3109799,128.730634 C58.3109799,126.672599 56.5959511,125.300576 54.8809223,125.300576 L54.8809223,125.300576 Z" id="Shape"></path>
                <path d="M170.816871,118.440461 L148.17849,118.440461 C139.946352,94.4300576 131.028202,73.8497118 125.883115,61.8445101 L125.197104,60.8154928 C124.511092,59.4434697 122.796064,58.7574582 121.42404,59.1004639 L120.052017,59.1004639 C113.191902,59.1004639 100.157683,54.641389 90.5535217,48.1242795 C79.5773373,40.9211584 73.7462393,31.6600028 73.7462393,23.4278645 C73.7462393,9.70763391 67.2291298,0.103472514 57.9679741,0.103472514 C52.8228877,0.103472514 47.3347954,2.84751863 41.8467032,8.33561085 C36.358611,13.8237031 3.77306341,46.7522564 3.77306341,46.7522564 C3.08705188,47.438268 2.74404611,48.1242795 2.74404611,49.1532968 C2.74404611,50.1823141 3.08705188,50.8683256 3.77306341,51.5543371 L113.191902,158.572136 C113.877914,159.258147 114.563925,158.915141 115.592943,158.915141 L192.083228,158.915141 C194.141262,158.915141 195.513286,158.572136 195.513286,156.857107 L195.513286,142.107859 C195.513286,129.07364 185.566118,118.440461 170.816871,118.440461 L170.816871,118.440461 Z M145.77745,125.300576 L170.816871,125.300576 C179.392015,125.300576 185.566118,128.730634 187.624153,135.590749 L123.482075,135.590749 L107.360804,120.15549 L137.545311,109.179305 C139.26034,113.981386 140.975369,118.097455 142.347392,123.242542 C143.033404,124.957571 144.405427,125.300576 145.77745,125.300576 L145.77745,125.300576 Z M129.999185,88.9419654 C129.656179,88.9419654 129.656179,88.9419654 129.999185,88.9419654 L91.2395333,101.976184 C90.5535217,102.31919 90.210516,102.662196 89.8675102,103.005202 L81.9783776,95.1160692 L125.883115,78.9947983 C126.912133,82.0818501 128.284156,85.5119078 129.999185,88.9419654 L129.999185,88.9419654 Z M131.714213,95.4590749 C132.057219,95.4590749 132.057219,95.1160692 132.057219,95.1160692 C133.086236,97.5171095 134.115254,100.261156 135.144271,103.005202 L103.930747,115.010403 C103.244735,115.353409 102.901729,115.696415 102.558723,116.039421 L94.6695909,108.150288 L131.714213,95.4590749 L131.714213,95.4590749 Z M46.9917897,13.8237031 C51.1078589,9.70763391 54.8809223,7.64959932 58.3109799,7.64959932 C63.7990721,7.64959932 67.2291298,14.5097146 67.2291298,24.113876 C67.2291298,34.7470547 74.4322508,45.3802334 87.1234641,54.2983832 C97.413637,61.5015043 110.10485,65.9605792 119.709012,66.303585 C120.738029,68.3616196 121.767046,70.4196542 122.796064,72.8206945 L77.8623085,89.2849712 C77.1762969,89.6279769 76.8332912,89.9709827 76.4902854,90.3139885 L23.6673977,37.148095 C33.2715591,27.5439336 43.9047378,16.5677492 46.9917897,13.8237031 L46.9917897,13.8237031 Z M117.307971,152.741038 L11.3191902,49.1532968 C13.034219,47.438268 15.7782651,44.6942218 18.865317,41.60717 L119.709012,141.764853 L120.738029,142.450865 L188.65317,142.450865 L188.65317,152.741038 L117.307971,152.741038 L117.307971,152.741038 Z" id="Shape"></path>
            </g>
            <g id="runverter" transform="translate(284.019641, 28.009508)">
                <path d="M0.552455883,95.2590516 L0.552455883,29.5408213 L9.84012,29.5408213 C11.4627924,29.5408213 12.5943928,29.8397347 13.2349214,30.4375613 C13.8754499,31.035388 14.302469,32.0602337 14.5159785,33.5120984 L15.4767713,41.4546526 C17.8253761,37.3979717 20.5796489,34.1953289 23.7395898,31.8467242 C26.8995307,29.4981194 30.4437887,28.3238171 34.3723639,28.3238171 C37.6177086,28.3238171 40.3079285,29.0711004 42.4430237,30.565667 L40.3933323,42.4154454 C40.2652266,43.1840797 39.9876642,43.7285289 39.5606452,44.0487932 C39.1336261,44.3690575 38.5571504,44.5291896 37.8312181,44.5291896 C37.1906895,44.5291896 36.3153005,44.379733 35.205051,44.0808197 C34.0948015,43.7819063 32.6215858,43.6324497 30.7854039,43.6324497 C27.4973573,43.6324497 24.6790316,44.5398651 22.3304269,46.354696 C19.9818222,48.169527 17.9961837,50.8277205 16.3735113,54.3292766 L16.3735113,95.2590516 L0.552455883,95.2590516 L0.552455883,95.2590516 Z" id="Shape"></path>
                <path d="M67.3595847,29.5408213 L67.3595847,71.3032835 C67.3595847,75.3172624 68.2883511,78.4238259 70.1458839,80.622974 C72.0034168,82.8221221 74.789716,83.9216961 78.5047816,83.9216961 C81.2377035,83.9216961 83.7998177,83.313194 86.1911244,82.0961897 C88.582431,80.8791854 90.8456319,79.2031357 92.9807271,77.0680405 L92.9807271,29.5408213 L108.801783,29.5408213 L108.801783,95.2590516 L99.1298013,95.2590516 C97.0801099,95.2590516 95.7349999,94.2982588 95.0944713,92.3766731 L94.0055728,87.1243389 C92.6391119,88.4907998 91.229949,89.7398305 89.7780843,90.871431 C88.3262196,92.0030314 86.7782755,92.9638243 85.1342522,93.7538095 C83.4902289,94.5437947 81.7180999,95.1629723 79.8178652,95.6113423 C77.9176305,96.0597123 75.8786145,96.2838973 73.7008174,96.2838973 C70.1138575,96.2838973 66.9432411,95.6753952 64.1889683,94.4583909 C61.4346955,93.2413866 59.1181172,91.522635 57.2392334,89.302136 C55.3603497,87.081637 53.9405114,84.4447944 52.9797185,81.3916083 C52.0189257,78.3384221 51.5385293,74.9756472 51.5385293,71.3032835 L51.5385293,29.5408213 L67.3595847,29.5408213 L67.3595847,29.5408213 Z" id="Shape"></path>
                <path d="M125.711737,95.2590516 L125.711737,29.5408213 L135.383718,29.5408213 C137.433409,29.5408213 138.778519,30.5016142 139.419048,32.4231999 L140.507946,37.6114812 C141.831705,36.2450203 143.230193,35.0066651 144.703408,33.8964155 C146.176624,32.786166 147.735243,31.8253732 149.379267,31.014037 C151.02329,30.2027009 152.784744,29.5835232 154.663627,29.1565042 C156.542511,28.7294852 158.592203,28.5159756 160.812702,28.5159756 C164.399662,28.5159756 167.580953,29.1244778 170.356577,30.341482 C173.132201,31.5584863 175.448779,33.2665625 177.306312,35.4657105 C179.163845,37.6648586 180.573008,40.2910257 181.533801,43.3442118 C182.494593,46.3973979 182.97499,49.7601729 182.97499,53.4325366 L182.97499,95.2590516 L167.153934,95.2590516 L167.153934,53.4325366 C167.153934,49.4185577 166.225168,46.3119941 164.367635,44.1128461 C162.510102,41.913698 159.723803,40.814124 156.008737,40.814124 C153.275816,40.814124 150.713701,41.4333016 148.322395,42.6716568 C145.931088,43.910012 143.667887,45.5967372 141.532792,47.7318324 L141.532792,95.2590516 L125.711737,95.2590516 L125.711737,95.2590516 Z" id="Shape"></path>
                <path d="M229.157099,95.2590516 L214.809259,95.2590516 L188.675694,29.5408213 L201.806529,29.5408213 C202.959481,29.5408213 203.930949,29.8183837 204.720934,30.3735085 C205.51092,30.9286332 206.055369,31.6332146 206.354282,32.4872527 L219.036748,67.5882178 C219.76268,69.6379092 220.371182,71.6448987 220.862254,73.6091863 C221.353326,75.5734738 221.791021,77.5377614 222.175338,79.502049 C222.559655,77.5377614 222.997349,75.5734738 223.488421,73.6091863 C223.979493,71.6448987 224.609346,69.6379092 225.37798,67.5882178 L238.38071,32.4872527 C238.679624,31.6332146 239.213397,30.9286332 239.982032,30.3735085 C240.750666,29.8183837 241.668757,29.5408213 242.736304,29.5408213 L255.226611,29.5408213 L229.157099,95.2590516 L229.157099,95.2590516 Z" id="Shape"></path>
                <path d="M289.622995,28.5159756 C293.76508,28.5159756 297.576225,29.1778552 301.05643,30.5016142 C304.536635,31.8253732 307.536444,33.7576344 310.055856,36.2983976 C312.575268,38.8391609 314.539556,41.9563999 315.948719,45.6501146 C317.357882,49.3438293 318.062463,53.5606423 318.062463,58.3005537 C318.062463,59.496207 318.009086,60.4890263 317.902331,61.2790115 C317.795576,62.0689967 317.603418,62.6881743 317.325855,63.1365443 C317.048293,63.5849143 316.674651,63.9051786 316.20493,64.0973372 C315.735209,64.2894957 315.137383,64.385575 314.41145,64.385575 L273.80194,64.385575 C274.271661,71.1324758 276.086491,76.0858967 279.246432,79.2458376 C282.406373,82.4057785 286.59116,83.9857489 291.800792,83.9857489 C294.362906,83.9857489 296.57273,83.6868356 298.430263,83.089009 C300.287796,82.4911823 301.910468,81.8293028 303.29828,81.1033704 C304.686092,80.377438 305.903096,79.7155585 306.949293,79.1177319 C307.995489,78.5199052 309.009659,78.2209919 309.991803,78.2209919 C310.632332,78.2209919 311.187457,78.3490976 311.657177,78.605309 C312.126898,78.8615205 312.532567,79.2244866 312.874182,79.6942076 L317.485987,85.4589646 C315.735209,87.508656 313.770922,89.2274077 311.593125,90.6152195 C309.415328,92.0030314 307.141451,93.1132809 304.771495,93.945968 C302.40154,94.7786552 299.988882,95.3658064 297.533523,95.7074216 C295.078163,96.0490368 292.697532,96.2198444 290.391629,96.2198444 C285.822526,96.2198444 281.573686,95.4618856 277.645111,93.945968 C273.716536,92.4300505 270.300383,90.1882005 267.396654,87.2204182 C264.492925,84.2526358 262.208373,80.5802721 260.542998,76.2033269 C258.877624,71.8263818 258.044937,66.7555307 258.044937,60.9907736 C258.044937,56.5070737 258.770869,52.2902607 260.222734,48.3403346 C261.674599,44.3904085 263.756317,40.9529052 266.467888,38.0278248 C269.179458,35.1027443 272.488856,32.786166 276.39608,31.0780899 C280.303304,29.3700137 284.712276,28.5159756 289.622995,28.5159756 L289.622995,28.5159756 Z M289.943259,39.8533312 C285.331454,39.8533312 281.723143,41.1557392 279.118327,43.7605554 C276.51351,46.3653715 274.848136,50.0590862 274.122204,54.8416995 L303.842729,54.8416995 C303.842729,52.7920081 303.565167,50.8597469 303.010042,49.044916 C302.454917,47.2300851 301.600879,45.6394391 300.447928,44.2729782 C299.294976,42.9065173 297.843112,41.8282942 296.092333,41.038309 C294.341555,40.2483238 292.291864,39.8533312 289.943259,39.8533312 L289.943259,39.8533312 Z" id="Shape"></path>
                <path d="M330.937087,95.2590516 L330.937087,29.5408213 L340.224751,29.5408213 C341.847424,29.5408213 342.979024,29.8397347 343.619553,30.4375613 C344.260081,31.035388 344.6871,32.0602337 344.90061,33.5120984 L345.861403,41.4546526 C348.210007,37.3979717 350.96428,34.1953289 354.124221,31.8467242 C357.284162,29.4981194 360.82842,28.3238171 364.756995,28.3238171 C368.00234,28.3238171 370.69256,29.0711004 372.827655,30.565667 L370.777964,42.4154454 C370.649858,43.1840797 370.372295,43.7285289 369.945276,44.0487932 C369.518257,44.3690575 368.941782,44.5291896 368.215849,44.5291896 C367.575321,44.5291896 366.699932,44.379733 365.589682,44.0808197 C364.479433,43.7819063 363.006217,43.6324497 361.170035,43.6324497 C357.881989,43.6324497 355.063663,44.5398651 352.715058,46.354696 C350.366453,48.169527 348.380815,50.8277205 346.758143,54.3292766 L346.758143,95.2590516 L330.937087,95.2590516 L330.937087,95.2590516 Z" id="Shape"></path>
                <path d="M404.854083,96.2838973 C399.17473,96.2838973 394.797785,94.6719004 391.723247,91.4479067 C388.64871,88.2239129 387.111442,83.7722394 387.111442,78.0928862 L387.111442,41.3905997 L380.449945,41.3905997 C379.595907,41.3905997 378.859299,41.1130373 378.240121,40.5579126 C377.620944,40.0027878 377.311355,39.1701007 377.311355,38.0598512 L377.311355,31.7826713 L387.880076,30.0532442 L391.210825,12.1184445 C391.381632,11.2644064 391.776625,10.6025269 392.395802,10.132806 C393.01498,9.66308503 393.79429,9.42822455 394.733732,9.42822455 L402.932497,9.42822455 L402.932497,30.117297 L420.226768,30.117297 L420.226768,41.3905997 L402.932497,41.3905997 L402.932497,77.0039876 C402.932497,79.053679 403.44492,80.6550004 404.469766,81.8079518 C405.494612,82.9609032 406.861072,83.5373789 408.569149,83.5373789 C409.551292,83.5373789 410.373304,83.4199487 411.035184,83.1850882 C411.697063,82.9502278 412.273539,82.7046918 412.764611,82.4484804 C413.255683,82.192269 413.693377,81.946733 414.077694,81.7118726 C414.462011,81.4770121 414.846328,81.3595818 415.230646,81.3595818 C415.700367,81.3595818 416.084684,81.4770121 416.383597,81.7118726 C416.68251,81.946733 417.002775,82.2990237 417.34439,82.7687447 L422.084301,90.4550874 C419.778398,92.3766731 417.13088,93.8285378 414.141747,94.8106816 C411.152614,95.7928254 408.056726,96.2838973 404.854083,96.2838973 L404.854083,96.2838973 Z" id="Shape"></path>
                <path d="M460.003592,28.5159756 C464.145677,28.5159756 467.956822,29.1778552 471.437027,30.5016142 C474.917232,31.8253732 477.917041,33.7576344 480.436453,36.2983976 C482.955865,38.8391609 484.920153,41.9563999 486.329316,45.6501146 C487.738479,49.3438293 488.44306,53.5606423 488.44306,58.3005537 C488.44306,59.496207 488.389683,60.4890263 488.282928,61.2790115 C488.176173,62.0689967 487.984015,62.6881743 487.706452,63.1365443 C487.42889,63.5849143 487.055248,63.9051786 486.585527,64.0973372 C486.115806,64.2894957 485.51798,64.385575 484.792047,64.385575 L444.182537,64.385575 C444.652257,71.1324758 446.467088,76.0858967 449.627029,79.2458376 C452.78697,82.4057785 456.971757,83.9857489 462.181389,83.9857489 C464.743503,83.9857489 466.953327,83.6868356 468.81086,83.089009 C470.668392,82.4911823 472.291065,81.8293028 473.678877,81.1033704 C475.066689,80.377438 476.283693,79.7155585 477.32989,79.1177319 C478.376086,78.5199052 479.390256,78.2209919 480.3724,78.2209919 C481.012929,78.2209919 481.568053,78.3490976 482.037774,78.605309 C482.507495,78.8615205 482.913163,79.2244866 483.254779,79.6942076 L487.866584,85.4589646 C486.115806,87.508656 484.151519,89.2274077 481.973722,90.6152195 C479.795924,92.0030314 477.522048,93.1132809 475.152092,93.945968 C472.782137,94.7786552 470.369479,95.3658064 467.91412,95.7074216 C465.45876,96.0490368 463.078129,96.2198444 460.772226,96.2198444 C456.203123,96.2198444 451.954283,95.4618856 448.025708,93.945968 C444.097133,92.4300505 440.68098,90.1882005 437.777251,87.2204182 C434.873521,84.2526358 432.58897,80.5802721 430.923595,76.2033269 C429.258221,71.8263818 428.425534,66.7555307 428.425534,60.9907736 C428.425534,56.5070737 429.151466,52.2902607 430.603331,48.3403346 C432.055196,44.3904085 434.136914,40.9529052 436.848485,38.0278248 C439.560055,35.1027443 442.869453,32.786166 446.776677,31.0780899 C450.683901,29.3700137 455.092873,28.5159756 460.003592,28.5159756 L460.003592,28.5159756 Z M460.323856,39.8533312 C455.712051,39.8533312 452.10374,41.1557392 449.498924,43.7605554 C446.894107,46.3653715 445.228733,50.0590862 444.502801,54.8416995 L474.223326,54.8416995 C474.223326,52.7920081 473.945764,50.8597469 473.390639,49.044916 C472.835514,47.2300851 471.981476,45.6394391 470.828525,44.2729782 C469.675573,42.9065173 468.223708,41.8282942 466.47293,41.038309 C464.722152,40.2483238 462.672461,39.8533312 460.323856,39.8533312 L460.323856,39.8533312 Z" id="Shape"></path>
                <path d="M501.317684,95.2590516 L501.317684,29.5408213 L510.605348,29.5408213 C512.228021,29.5408213 513.359621,29.8397347 514.00015,30.4375613 C514.640678,31.035388 515.067697,32.0602337 515.281207,33.5120984 L516.242,41.4546526 C518.590604,37.3979717 521.344877,34.1953289 524.504818,31.8467242 C527.664759,29.4981194 531.209017,28.3238171 535.137592,28.3238171 C538.382937,28.3238171 541.073157,29.0711004 543.208252,30.565667 L541.158561,42.4154454 C541.030455,43.1840797 540.752892,43.7285289 540.325873,44.0487932 C539.898854,44.3690575 539.322379,44.5291896 538.596446,44.5291896 C537.955918,44.5291896 537.080529,44.379733 535.970279,44.0808197 C534.86003,43.7819063 533.386814,43.6324497 531.550632,43.6324497 C528.262586,43.6324497 525.44426,44.5398651 523.095655,46.354696 C520.74705,48.169527 518.761412,50.8277205 517.13874,54.3292766 L517.13874,95.2590516 L501.317684,95.2590516 L501.317684,95.2590516 Z" id="Shape"></path>
                <path d="M541.158561,86.5478632 C541.158561,85.2241042 541.404096,83.964398 541.895168,82.7687447 C542.38624,81.5730914 543.069471,80.5482457 543.94486,79.6942076 C544.820249,78.8401695 545.85577,78.156939 547.051423,77.6445162 C548.247077,77.1320933 549.528134,76.8758819 550.894595,76.8758819 C552.218354,76.8758819 553.47806,77.1320933 554.673713,77.6445162 C555.869366,78.156939 556.894212,78.8401695 557.74825,79.6942076 C558.602288,80.5482457 559.285519,81.5730914 559.797942,82.7687447 C560.310364,83.964398 560.566576,85.2241042 560.566576,86.5478632 C560.566576,87.9143241 560.310364,89.1847058 559.797942,90.3590081 C559.285519,91.5333105 558.602288,92.5474807 557.74825,93.4015188 C556.894212,94.2555569 555.869366,94.9281118 554.673713,95.4191837 C553.47806,95.9102556 552.218354,96.1557916 550.894595,96.1557916 C549.528134,96.1557916 548.247077,95.9102556 547.051423,95.4191837 C545.85577,94.9281118 544.820249,94.2555569 543.94486,93.4015188 C543.069471,92.5474807 542.38624,91.5333105 541.895168,90.3590081 C541.404096,89.1847058 541.158561,87.9143241 541.158561,86.5478632 L541.158561,86.5478632 Z" id="Shape"></path>
                <path d="M590.602917,29.5408213 L590.602917,95.2590516 L574.78542,95.2590516 L574.78542,29.5408213 L590.602917,29.5408213 L590.602917,29.5408213 Z M592.978211,10.3890174 C592.978211,11.7554783 592.702428,13.0365354 592.141965,14.2321888 C591.590399,15.4278421 590.852012,16.4740387 589.9357,17.3707787 C589.019388,18.2675187 587.934048,18.9827756 586.697472,19.5165494 C585.460896,20.0503232 584.135358,20.3172101 582.729754,20.3172101 C581.359734,20.3172101 580.069781,20.0503232 578.850997,19.5165494 C577.64111,18.9827756 576.582459,18.2675187 575.68394,17.3707787 C574.78542,16.4740387 574.073722,15.4278421 573.539948,14.2321888 C573.006174,13.0365354 572.739287,11.7554783 572.739287,10.3890174 C572.739287,8.97985456 573.006174,7.65609554 573.539948,6.41774032 C574.073722,5.17938511 574.78542,4.11183751 575.68394,3.21509752 C576.582459,2.31835754 577.64111,1.60310065 578.850997,1.06932685 C580.069781,0.535553046 581.359734,0.268666146 582.729754,0.268666146 C584.135358,0.268666146 585.460896,0.535553046 586.697472,1.06932685 C587.934048,1.60310065 589.019388,2.31835754 589.9357,3.21509752 C590.852012,4.11183751 591.590399,5.17938511 592.141965,6.41774032 C592.702428,7.65609554 592.978211,8.97985456 592.978211,10.3890174 L592.978211,10.3890174 Z" id="Shape"></path>
                <path d="M636.534153,28.5159756 C641.444872,28.5159756 645.892987,29.3059609 649.887394,30.8859313 C653.881801,32.4659018 657.289057,34.7077517 660.109162,37.6114812 C662.920371,40.5152107 665.099947,44.0594687 666.638995,48.2442553 C668.178043,52.4290419 668.943119,57.1049004 668.943119,62.2718308 C668.943119,67.481463 668.178043,72.1786725 666.638995,76.3634591 C665.099947,80.5482457 662.920371,84.1138547 660.109162,87.060286 C657.289057,90.0067174 653.881801,92.2699183 649.887394,93.8498888 C645.892987,95.4298592 641.444872,96.2198444 636.534153,96.2198444 C631.623434,96.2198444 627.157526,95.4298592 623.145327,93.8498888 C619.133127,92.2699183 615.708078,90.0067174 612.861285,87.060286 C610.023387,84.1138547 607.826019,80.5482457 606.269178,76.3634591 C604.712338,72.1786725 603.92947,67.481463 603.92947,62.2718308 C603.92947,57.1049004 604.712338,52.4290419 606.269178,48.2442553 C607.826019,44.0594687 610.023387,40.5152107 612.861285,37.6114812 C615.708078,34.7077517 619.133127,32.4659018 623.145327,30.8859313 C627.157526,29.3059609 631.623434,28.5159756 636.534153,28.5159756 L636.534153,28.5159756 Z M636.534153,84.0498018 C641.996438,84.0498018 646.044223,82.2136199 648.66861,78.5412562 C651.301895,74.8688924 652.60964,69.4884525 652.60964,62.3999365 C652.60964,55.3114204 651.301895,49.9096295 648.66861,46.1945639 C646.044223,42.4794983 641.996438,40.6219654 636.534153,40.6219654 C630.982905,40.6219654 626.881743,42.4901737 624.230667,46.2265903 C621.588486,49.9630069 620.262948,55.3541223 620.262948,62.3999365 C620.262948,69.4457506 621.588486,74.8155151 624.230667,78.5092298 C626.881743,82.2029444 630.982905,84.0498018 636.534153,84.0498018 L636.534153,84.0498018 Z" id="Shape"></path>
            </g>
        </g>
    </g>
</svg>