<?xml version="1.0" encoding="UTF-8"?>
<svg width="40px" height="32px" viewBox="0 0 40 32" version="1.1" xmlns="http://www.w3.org/2000/svg" xmlns:xlink="http://www.w3.org/1999/xlink">
    <!-- Generator: Sketch 51.2 (57519) - http://www.bohemiancoding.com/sketch -->
    <title>twitter</title>
    <desc>Created with Sketch.</desc>
    <defs></defs>
    <g id="Page-1" stroke="none" stroke-width="1" fill="none" fill-rule="evenodd">
        <g id="twitter" fill="#1DA1F2">
            <g id="Group">
                <g id="noun_20940">
                    <path d="M35.292,7.801 C35.31,8.138 35.317,8.478 35.317,8.819 C35.317,19.223 27.398,31.219 12.917,31.219 C8.472,31.219 4.333,29.916 0.847,27.682 C1.46,27.75 2.09,27.793 2.725,27.793 C6.414,27.793 9.808,26.533 12.504,24.42 C9.055,24.359 6.15,22.08 5.147,18.953 C5.628,19.045 6.122,19.096 6.625,19.096 C7.345,19.096 8.041,18.998 8.7,18.819 C5.098,18.092 2.383,14.914 2.383,11.096 L2.383,10.998 C3.445,11.586 4.66,11.94 5.95,11.98 C3.838,10.568 2.45,8.156 2.45,5.426 C2.45,3.984 2.838,2.633 3.516,1.47 C7.396,6.233 13.199,9.366 19.743,9.694 C19.607,9.12 19.541,8.516 19.541,7.899 C19.541,3.555 23.065,0.03 27.411,0.03 C29.677,0.03 31.724,0.986 33.16,2.513 C34.951,2.162 36.638,1.507 38.159,0.604 C37.57,2.441 36.321,3.984 34.698,4.958 C36.289,4.77 37.804,4.347 39.218,3.718 C38.165,5.305 36.832,6.691 35.292,7.801 L35.292,7.801 Z" id="Shape"></path>
                </g>
            </g>
        </g>
    </g>
</svg>