<?xml version="1.0" standalone="no"?>
<!DOCTYPE svg PUBLIC "-//W3C//DTD SVG 20010904//EN"
 "http://www.w3.org/TR/2001/REC-SVG-20010904/DTD/svg10.dtd">
<svg version="1.0" xmlns="http://www.w3.org/2000/svg"
 width="648.000000pt" height="648.000000pt" viewBox="0 0 648.000000 648.000000"
 preserveAspectRatio="xMidYMid meet">
<metadata>
Created by potrace 1.11, written by Peter Selinger 2001-2013
</metadata>
<g transform="translate(0.000000,648.000000) scale(0.100000,-0.100000)"
fill="#000000" stroke="none">
<path d="M1790 5855 c-86 -23 -210 -90 -296 -160 -43 -35 -375 -363 -736 -729
-648 -655 -658 -666 -658 -705 0 -21 3 -47 6 -55 3 -9 727 -721 1608 -1584
880 -862 1701 -1665 1822 -1785 l222 -217 1336 2 c1268 3 1336 4 1353 21 17
16 18 43 18 320 0 350 -8 403 -80 552 -78 162 -187 271 -350 350 -163 79 -153
78 -671 82 l-462 4 -27 77 c-191 534 -316 858 -524 1355 -180 432 -201 477
-238 508 -29 24 -40 27 -155 32 -408 17 -1025 326 -1293 646 -82 97 -158 225
-190 318 -21 62 -29 116 -40 258 -17 212 -39 306 -101 433 -57 117 -138 204
-237 252 -58 28 -79 33 -160 36 -61 3 -111 -1 -147 -11z m201 -235 c59 -16
125 -82 163 -163 46 -96 64 -185 76 -368 6 -97 17 -181 30 -228 99 -352 453
-717 922 -949 240 -119 467 -191 676 -215 l104 -11 49 -98 c27 -54 49 -104 49
-112 0 -8 -19 -21 -42 -29 -229 -80 -1447 -532 -1462 -543 -11 -8 -23 -14 -27
-14 -3 0 -399 396 -879 881 l-873 881 369 370 c203 203 409 405 457 448 150
132 277 181 388 150z m317 -2787 l1671 -1663 1133 -2 1133 -3 3 -172 2 -173
-1187 0 -1188 1 -1753 1716 -1754 1716 124 124 c68 68 128 122 134 121 7 -2
764 -751 1682 -1665z m1884 368 c10 -30 39 -102 64 -159 26 -57 43 -107 38
-111 -5 -4 -295 -104 -644 -221 -349 -117 -642 -219 -651 -226 -8 -8 -20 -14
-25 -14 -5 0 -67 58 -139 130 -111 112 -126 130 -109 137 176 70 1414 521
1428 520 14 -1 25 -18 38 -56z m232 -598 c25 -64 46 -121 46 -128 0 -6 -226
-98 -502 -205 -277 -106 -520 -202 -541 -213 l-38 -21 -129 129 c-71 71 -126
132 -122 136 4 3 275 97 602 209 327 112 602 206 610 211 8 4 18 5 21 3 4 -2
28 -57 53 -121z m184 -483 c28 -75 64 -182 81 -238 35 -112 53 -136 109 -146
20 -3 246 -6 502 -6 518 0 552 -4 675 -64 41 -20 92 -57 123 -88 54 -53 119
-168 107 -187 -4 -8 -322 -11 -1061 -11 l-1055 0 -263 253 c-144 138 -265 257
-267 262 -5 11 982 375 993 366 4 -3 29 -67 56 -141z"/>
<path d="M40 2831 c-37 -37 -46 -73 -28 -119 26 -71 39 -73 401 -70 l319 3 29
33 c32 35 38 81 17 127 -24 53 -40 55 -388 55 l-322 0 -28 -29z"/>
<path d="M41 2264 c-38 -32 -49 -80 -27 -126 31 -66 1 -63 647 -66 455 -2 594
0 625 10 75 25 96 129 37 184 l-26 24 -613 0 -612 0 -31 -26z"/>
<path d="M90 1724 c-41 -14 -61 -30 -75 -61 -23 -47 -13 -95 26 -127 l31 -26
893 0 894 0 26 23 c52 45 48 129 -8 171 -28 21 -33 21 -900 23 -480 1 -879 -1
-887 -3z"/>
</g>
</svg>
