<?xml version="1.0" encoding="UTF-8" standalone="no"?>
<svg width="84px" height="50px" viewBox="0 0 84 50" version="1.1" xmlns="http://www.w3.org/2000/svg" xmlns:xlink="http://www.w3.org/1999/xlink">
    <!-- Generator: Sketch 3.8.3 (29802) - http://www.bohemiancoding.com/sketch -->
    <title>english</title>
    <desc>Created with Sketch.</desc>
    <defs></defs>
    <g id="Page-1" stroke="none" stroke-width="1" fill="none" fill-rule="evenodd">
        <g id="english" fill="#000000">
            <g id="Group">
                <g id="Shape">
                    <path d="M73.883,9.664 C70.529,7.144 66.642,5.367 62.682,4.031 C58.715,2.693 54.594,1.781 50.436,1.301 C46.111,0.801 41.726,0.907 37.386,1.143 C33.407,1.358 29.428,1.776 25.523,2.581 C20.75,3.566 15.963,5.152 11.992,8.054 C10.759,8.955 9.624,9.982 8.569,11.087 C8.084,11.597 7.614,12.123 7.142,12.646 C6.398,13.469 5.679,14.172 4.727,14.744 C3.839,15.275 3.016,15.925 2.335,16.706 C1.242,17.962 0.568,19.552 0.547,21.226 C0.528,22.755 1.061,24.721 2.27,25.746 C2.46,25.906 2.674,26.04 2.905,26.137 C3.055,26.2 3.141,26.158 3.128,26.337 C3.12,26.441 3.112,26.544 3.107,26.648 C3.081,27.087 3.076,27.529 3.095,27.969 C3.132,28.802 3.259,29.63 3.476,30.436 C3.951,32.205 4.852,33.826 5.943,35.287 C7.372,37.201 9.107,38.876 10.909,40.434 C12.489,41.802 14.245,42.943 16.11,43.881 C20.033,45.854 24.344,46.966 28.656,47.695 C33.231,48.469 37.907,48.887 42.544,49.023 C47.428,49.166 52.334,48.849 57.137,47.942 C60.589,47.29 63.992,46.336 67.246,45.005 C70.972,43.482 74.694,41.44 77.576,38.592 C80.558,35.645 81.769,31.414 81.57,27.292 C81.555,26.992 81.535,26.692 81.511,26.393 C81.497,26.216 81.488,26.224 81.641,26.125 C81.823,26.007 81.992,25.87 82.148,25.719 C82.839,25.049 83.248,24.131 83.392,23.187 C83.516,22.377 83.449,21.548 83.254,20.755 C82.822,18.991 81.819,17.401 80.7,15.995 C78.765,13.564 76.357,11.521 73.883,9.664 C66.016,3.758 82.535,16.157 73.883,9.664 L73.883,9.664 Z M78.391,35.237 C77.592,36.709 76.272,37.912 74.982,38.946 C72.885,40.627 70.524,41.969 68.082,43.077 C60.47,46.527 51.945,47.73 43.644,47.603 C39.144,47.535 34.606,47.142 30.158,46.457 C25.928,45.806 21.688,44.822 17.774,43.053 C13.85,41.28 10.458,38.524 7.729,35.199 C6.039,33.141 4.681,30.745 4.54,28.035 C4.528,27.811 4.523,27.589 4.525,27.364 C4.527,27.16 4.533,26.956 4.545,26.751 C4.553,26.617 4.563,26.483 4.576,26.35 C4.594,26.179 4.808,26.191 4.959,26.138 C5.214,26.047 5.361,25.941 5.629,25.985 C5.818,26.016 6.009,26.049 6.198,26.086 C6.727,26.185 7.254,26.299 7.775,26.436 C8.299,26.573 8.82,26.731 9.324,26.93 C9.56,27.024 9.623,27.22 9.705,27.451 C10.039,28.385 10.198,29.381 10.399,30.348 C10.757,32.068 11.19,34.137 12.692,35.246 C14.621,36.671 17.507,35.875 19.607,35.333 C20.847,35.012 22.082,34.626 23.349,34.426 C24.091,34.309 25.107,34.148 25.493,34.958 C25.806,35.616 25.943,36.343 26.269,36.998 C26.607,37.681 27.101,38.269 27.747,38.68 C28.675,39.271 29.817,39.467 30.894,39.571 C32.101,39.686 33.286,39.546 34.468,39.305 C36.573,38.878 38.71,38.347 40.866,38.287 C43.407,38.217 45.829,39.101 48.28,39.633 C50.744,40.166 53.251,40.293 55.736,39.824 C59.257,39.159 62.638,37.671 64.816,34.741 C65.128,34.32 65.417,33.882 65.735,33.466 C66.262,32.779 66.866,32.502 67.688,32.278 C69.436,31.801 71.257,31.649 73,31.142 C74.563,30.687 76.057,29.948 76.756,28.397 C76.902,28.072 77.017,27.734 77.115,27.392 C77.169,27.207 77.152,27.07 77.347,27.014 C77.501,26.969 77.661,26.938 77.82,26.91 C78.568,26.776 79.329,26.726 80.081,26.615 C80.309,29.629 79.847,32.555 78.391,35.237 C76.199,39.275 80.37,31.591 78.391,35.237 L78.391,35.237 Z M81.955,23.026 C81.834,23.745 81.399,24.786 80.623,25.033 C79.737,25.316 78.727,25.304 77.813,25.447 C77.825,25.516 77.837,25.586 77.849,25.654 C77.781,25.478 77.822,25.451 77.613,25.468 C77.321,25.493 77.028,25.507 76.736,25.5 C76.433,25.492 76.09,25.479 75.808,25.354 C75.471,25.203 75.158,24.857 74.865,24.629 C75.048,24.926 75.23,25.224 75.413,25.521 C75.553,25.748 75.665,25.983 75.723,26.245 C75.73,26.277 75.809,26.851 75.77,26.851 C75.494,27.847 75.096,28.624 74.165,29.135 C73.145,29.694 71.974,29.945 70.843,30.165 C69.614,30.406 68.364,30.582 67.158,30.928 C66.071,31.24 65.262,31.708 64.571,32.613 C63.762,33.675 63.067,34.769 62.028,35.632 C60.52,36.885 58.642,37.611 56.766,38.111 C56.162,38.272 55.547,38.401 54.929,38.497 C54.663,38.538 54.397,38.572 54.129,38.601 C53.93,38.622 53.73,38.641 53.529,38.654 C53.507,38.687 53.54,38.822 53.543,38.864 C53.449,38.632 53.443,38.661 53.18,38.672 C52.964,38.681 52.746,38.687 52.531,38.688 C52.087,38.688 51.641,38.666 51.198,38.629 C50.368,38.56 49.545,38.425 48.729,38.255 C47.368,37.971 46.033,37.576 44.674,37.276 C42.901,36.884 41.153,36.75 39.346,36.972 C37.939,37.147 36.552,37.402 35.164,37.689 C34.646,37.796 34.13,37.905 33.609,38 C33.282,38.06 32.954,38.107 32.623,38.139 C32.43,38.157 32.236,38.167 32.042,38.172 C31.889,38.236 31.912,38.162 31.914,38.385 C31.85,38.185 31.876,38.178 31.647,38.17 C31.462,38.164 31.278,38.154 31.093,38.139 C30.737,38.109 30.381,38.057 30.029,37.991 C29.102,37.815 28.228,37.482 27.713,36.646 C27.294,35.969 27.164,35.167 26.843,34.448 C26.443,33.552 25.659,32.958 24.658,32.92 C23.254,32.813 21.828,33.258 20.484,33.61 C19.176,33.954 17.867,34.335 16.523,34.503 C15.319,34.65 13.912,34.667 13.097,33.624 C12.176,32.445 11.954,30.775 11.665,29.353 C11.428,28.182 11.235,26.122 9.919,25.619 C8.645,25.133 7.182,25.024 5.835,24.886 C5.998,23.964 5.73,23.036 5.544,22.141 C5.443,22.909 5.468,23.962 4.878,24.538 C4.649,24.763 4.399,24.798 4.095,24.864 C4.016,24.883 3.936,24.891 3.855,24.889 C3.746,24.886 3.638,24.868 3.534,24.834 C3.399,24.788 3.417,24.868 3.361,24.991 C3.409,24.744 3.382,24.798 3.191,24.632 C2.983,24.458 2.839,24.201 2.707,23.969 C2.514,23.63 2.354,23.275 2.238,22.902 C2.02,22.2 1.952,21.455 2.04,20.725 C2.256,18.918 3.404,17.411 4.858,16.38 C5.641,15.824 6.453,15.413 7.148,14.738 C7.665,14.236 8.14,13.691 8.623,13.158 C9.801,11.852 11.037,10.596 12.446,9.537 C16.736,6.312 22.091,4.589 27.342,3.715 C29.82,3.302 32.298,2.974 34.803,2.766 C37.035,2.581 39.276,2.528 41.515,2.442 C49.018,2.153 56.53,3.314 63.582,5.907 C67.612,7.388 71.316,9.388 74.655,12.095 C77.232,14.184 79.963,16.641 81.363,19.723 C81.827,20.74 82.146,21.901 81.955,23.026 C81.741,24.29 82.264,21.203 81.955,23.026 L81.955,23.026 Z"></path>
                    <path d="M57.541,18.793 C56.911,18.57 56.273,18.368 55.639,18.164 C55.362,18.074 54.836,18.025 54.672,17.758 C54.443,17.386 54.397,16.904 54.233,16.499 C53.815,15.468 52.828,15.037 51.834,14.687 C50.747,14.304 49.605,14.187 48.458,14.22 C47.259,14.255 46.066,14.398 44.869,14.454 C44.266,14.483 43.649,14.54 43.057,14.397 C42.421,14.243 41.826,13.953 41.224,13.702 C40.143,13.251 38.982,12.924 37.822,13.274 C36.828,13.575 36.221,14.366 35.339,14.842 C34.705,15.184 33.819,15.004 33.137,14.938 C32.241,14.851 31.301,14.649 30.4,14.75 C29.593,14.841 29.343,15.527 29.252,16.25 C29.193,16.707 29.187,17.17 29.172,17.631 C29.165,17.843 29.194,18.092 29.115,18.272 L29.116,18.272 C29.116,18.272 29.104,18.296 29.08,18.332 C29.069,18.349 29.058,18.364 29.045,18.378 C28.954,18.486 28.769,18.607 28.442,18.639 C26.989,18.78 24.926,18.616 24.296,18.417 C26.192,19.188 28.087,19.96 29.984,20.731 C32.79,21.874 35.737,22.659 38.736,23.086 C40.903,23.395 43.099,23.53 45.282,23.307 C47.34,23.095 49.369,22.637 51.349,22.045 C53.855,21.295 56.263,20.313 58.602,19.149 C58.246,19.032 57.894,18.912 57.541,18.793 L57.541,18.793 Z M41.333,22.446 C41.304,22.445 41.305,22.445 41.333,22.446 L41.333,22.446 L41.333,22.446 Z M41.34,22.447 C41.371,22.448 41.423,22.449 41.491,22.452 C41.415,22.449 41.367,22.447 41.34,22.447 L41.34,22.447 Z M43.458,22.521 C43.531,22.523 43.543,22.523 43.458,22.521 L43.458,22.521 L43.458,22.521 Z M42.435,22.484 C39.192,22.372 35.962,21.779 32.872,20.795 C39.342,18.769 46.724,18.217 53.224,20.451 C49.792,21.675 46.104,22.613 42.435,22.484 L42.435,22.484 Z M55.238,19.679 C54.806,19.68 54.461,19.502 54.054,19.354 C53.433,19.128 52.805,18.924 52.17,18.741 C50.944,18.387 49.694,18.112 48.434,17.918 C45.877,17.522 43.275,17.454 40.699,17.683 C37.423,17.972 34.101,18.689 31.057,19.96 C30.827,20.057 30.801,20.064 30.538,19.956 C30.277,19.849 30.018,19.737 29.758,19.632 C29.7,19.609 29.66,19.403 29.64,19.348 C29.583,19.198 29.605,19.272 29.657,19.177 C30.053,18.906 30.066,18.429 30.088,17.989 C30.108,17.561 30.111,17.135 30.143,16.708 C30.16,16.47 30.133,15.878 30.35,15.71 C30.642,15.58 31.102,15.671 31.408,15.696 C32.067,15.751 32.722,15.842 33.382,15.903 C33.942,15.955 34.525,16.007 35.083,15.913 C35.653,15.816 36.127,15.47 36.567,15.114 C37.307,14.516 38.038,14.005 39.036,14.056 C40.307,14.122 41.414,14.9 42.614,15.241 C43.808,15.581 45.131,15.387 46.35,15.293 C48.447,15.132 50.461,14.985 52.406,15.937 C52.843,16.15 53.169,16.359 53.36,16.822 C53.519,17.205 53.589,17.619 53.753,18 C54.149,18.916 55.274,19.023 56.126,19.305 C55.832,19.431 55.535,19.557 55.238,19.679 L55.238,19.679 Z"></path>
                </g>
            </g>
        </g>
    </g>
</svg>