<?xml version="1.0" encoding="UTF-8" standalone="no"?>
<svg width="96px" height="34px" viewBox="0 0 96 34" version="1.1" xmlns="http://www.w3.org/2000/svg" xmlns:xlink="http://www.w3.org/1999/xlink">
    <!-- Generator: Sketch 3.8.3 (29802) - http://www.bohemiancoding.com/sketch -->
    <title>expertmode-on</title>
    <desc>Created with Sketch.</desc>
    <defs></defs>
    <g id="Page-1" stroke="none" stroke-width="1" fill="none" fill-rule="evenodd">
        <g id="expertmode-on" fill="#0088CC">
            <path d="M88.686,17.01 C88.778,4.408 81.241,3.614 72.721,4.23 C52.945,5.66 54.91,9.719 55.58,17.366 C56.236,24.845 62.529,31.712 73.17,31.712 C81.713,31.712 88.615,26.87 88.686,17.01 L88.686,17.01 L88.686,17.01 Z M6.77,17.01 C6.841,26.87 13.741,31.712 22.284,31.712 C32.928,31.712 39.219,24.846 39.875,17.366 C40.545,9.719 42.509,5.659 22.734,4.23 C14.214,3.614 6.678,4.408 6.77,17.01 L6.77,17.01 L6.77,17.01 Z M40.799,5.121 C43.331,6.01 47.41,6 47.726,5.997 C48.044,5.999 52.123,6.01 54.656,5.121 C57.289,4.196 64.73,0.849 76.226,0.422 C86.085,0.056 92.568,1.626 94.445,2.718 C94.838,2.975 95.099,3.419 95.099,3.923 L95.099,9.359 C95.099,10.115 94.745,10.721 93.773,11.579 C92.017,12.878 91.99,14.67 91.636,17.55 C91.081,22.082 90.644,31.998 75.728,33.457 C61.689,34.832 55.722,27.228 53.55,21.567 C51.411,15.988 51.458,13.245 47.725,13.235 C43.993,13.245 44.043,15.988 41.902,21.567 C39.731,27.227 33.765,34.832 19.725,33.457 C4.811,31.997 4.373,22.081 3.817,17.549 C3.463,14.669 3.438,12.877 1.681,11.578 C0.709,10.72 0.356,10.114 0.356,9.358 L0.356,3.922 C0.356,3.418 0.617,2.974 1.009,2.717 C2.887,1.625 9.369,0.055 19.227,0.421 C30.725,0.849 38.165,4.195 40.799,5.121 L40.799,5.121 L40.799,5.121 Z" id="Shape"></path>
        </g>
    </g>
</svg>