<?xml version="1.0" encoding="UTF-8" standalone="no"?>
<svg width="101px" height="35px" viewBox="0 0 101 35" version="1.1" xmlns="http://www.w3.org/2000/svg" xmlns:xlink="http://www.w3.org/1999/xlink">
    <!-- Generator: Sketch 3.8.3 (29802) - http://www.bohemiancoding.com/sketch -->
    <title>expertmode-off</title>
    <desc>Created with Sketch.</desc>
    <defs></defs>
    <g id="Page-1" stroke="none" stroke-width="1" fill="none" fill-rule="evenodd">
        <g id="expertmode-off" transform="translate(-1.000000, -6.000000)" fill="#000000">
            <g id="Group">
                <path d="M52,11.9964888 C53.014723,11.9883275 56.4315239,11.9017182 58.656,11.121 C61.289,10.196 68.73,6.849 80.226,6.422 C90.085,6.056 96.568,7.626 98.445,8.718 C98.838,8.975 99.099,9.419 99.099,9.923 L99.099,15.359 C99.099,16.115 98.745,16.721 97.773,17.579 C96.017,18.878 95.99,20.67 95.636,23.55 C95.081,28.082 94.644,37.998 79.728,39.457 C65.689,40.832 59.722,33.228 57.55,27.567 C55.4648809,22.1285337 55.4570192,19.3849905 52,19.2409598 L52,11.9964888 Z M92.686,23.01 C92.778,10.408 85.241,9.614 76.721,10.23 C56.945,11.66 58.91,15.719 59.58,23.366 C60.236,30.845 66.529,37.712 77.17,37.712 C85.713,37.712 92.615,32.87 92.686,23.01 Z" id="right" stroke-linecap="round" transform="translate(75.549500, 22.994032) rotate(-345.000000) translate(-75.549500, -22.994032) "></path>
                <path d="M52,11.9964888 C51.8592629,11.9976207 51.764733,11.9972436 51.726,11.997 C51.41,12 47.331,12.01 44.799,11.121 C42.165,10.195 34.725,6.849 23.227,6.421 C13.369,6.055 6.887,7.625 5.009,8.717 C4.617,8.974 4.356,9.418 4.356,9.922 L4.356,15.358 C4.356,16.114 4.709,16.72 5.681,17.578 C7.438,18.877 7.463,20.669 7.817,23.549 C8.373,28.081 8.811,37.997 23.725,39.457 C37.765,40.832 43.731,33.227 45.902,27.567 C48.043,21.988 47.993,19.245 51.725,19.235 C51.8190334,19.2352519 51.9106683,19.2372379 52,19.2409598 L52,11.9964888 Z M10.77,23.01 C10.841,32.87 17.741,37.712 26.284,37.712 C36.928,37.712 43.219,30.846 43.875,23.366 C44.545,15.719 46.509,11.659 26.734,10.23 C18.214,9.614 10.678,10.408 10.77,23.01 Z" id="left" transform="translate(28.178000, 22.993523) rotate(-15.000000) translate(-28.178000, -22.993523) "></path>
            </g>
        </g>
    </g>
</svg>