<?xml version="1.0" encoding="UTF-8" standalone="no"?>
<svg width="108px" height="35px" viewBox="0 0 108 35" version="1.1" xmlns="http://www.w3.org/2000/svg" xmlns:xlink="http://www.w3.org/1999/xlink">
    <!-- Generator: Sketch 3.8.3 (29802) - http://www.bohemiancoding.com/sketch -->
    <title>expertmode-off</title>
    <desc>Created with Sketch.</desc>
    <defs></defs>
    <g id="Page-1" stroke="none" stroke-width="1" fill="none" fill-rule="evenodd">
        <g id="expertmode-off" transform="translate(0.000000, -6.000000)" fill="#0088CC">
            <g id="Group">
                <path d="M58,11.9964888 C59.014723,11.9883275 62.4315239,11.9017182 64.656,11.121 C67.289,10.196 74.73,6.849 86.226,6.422 C96.085,6.056 102.568,7.626 104.445,8.718 C104.838,8.975 105.099,9.419 105.099,9.923 L105.099,15.359 C105.099,16.115 104.745,16.721 103.773,17.579 C102.017,18.878 101.99,20.67 101.636,23.55 C101.081,28.082 100.644,37.998 85.728,39.457 C71.689,40.832 65.722,33.228 63.55,27.567 C61.4648809,22.1285337 61.4570192,19.3849905 58,19.2409598 L58,11.9964888 Z M98.686,23.01 C98.778,10.408 91.241,9.614 82.721,10.23 C62.945,11.66 64.91,15.719 65.58,23.366 C66.236,30.845 72.529,37.712 83.17,37.712 C91.713,37.712 98.615,32.87 98.686,23.01 Z" id="right" stroke-linecap="round" transform="translate(81.549500, 22.994032) rotate(-345.000000) translate(-81.549500, -22.994032) "></path>
                <path d="M51.1355815,12.2286742 C50.9948444,12.2298061 50.9003145,12.229429 50.8615815,12.2291854 C50.5455815,12.2321854 46.4665815,12.2421854 43.9345815,11.3531854 C41.3005815,10.4271854 33.8605815,7.08118539 22.3625815,6.65318539 C12.5045815,6.28718539 6.0225815,7.85718539 4.1445815,8.94918539 C3.7525815,9.20618539 3.4915815,9.65018539 3.4915815,10.1541854 L3.4915815,15.5901854 C3.4915815,16.3461854 3.8445815,16.9521854 4.8165815,17.8101854 C6.5735815,19.1091854 6.5985815,20.9011854 6.9525815,23.7811854 C7.5085815,28.3131854 7.9465815,38.2291854 22.8605815,39.6891854 C36.9005815,41.0641854 42.8665815,33.4591854 45.0375815,27.7991854 C47.1785815,22.2201854 47.1285815,19.4771854 50.8605815,19.4671854 C50.9546149,19.4674373 51.0462498,19.4694233 51.1355815,19.4731452 L51.1355815,12.2286742 Z M9.9055815,23.2421854 C9.9765815,33.1021854 16.8765815,37.9441854 25.4195815,37.9441854 C36.0635815,37.9441854 42.3545815,31.0781854 43.0105815,23.5981854 C43.6805815,15.9511854 45.6445815,11.8911854 25.8695815,10.4621854 C17.3495815,9.84618539 9.8135815,10.6401854 9.9055815,23.2421854 Z" id="left" transform="translate(27.313581, 23.225708) rotate(-15.000000) translate(-27.313581, -23.225708) "></path>
            </g>
        </g>
    </g>
</svg>