<?xml version="1.0" encoding="UTF-8" standalone="no"?>
<svg width="73px" height="72px" viewBox="0 0 73 72" version="1.1" xmlns="http://www.w3.org/2000/svg" xmlns:xlink="http://www.w3.org/1999/xlink">
    <!-- Generator: Sketch 3.8.3 (29802) - http://www.bohemiancoding.com/sketch -->
    <title>expertmode-off</title>
    <desc>Created with Sketch.</desc>
    <defs></defs>
    <g id="Page-1" stroke="none" stroke-width="1" fill="none" fill-rule="evenodd">
        <g id="expertmode-off" transform="translate(3.000000, 3.000000)">
            <g id="Group">
                <g id="Shape">
                    <path d="M33.5,65.357 C15.564,65.357 0.973,50.765 0.973,32.83 C0.973,14.895 15.565,0.303 33.5,0.303 C51.435,0.303 66.027,14.895 66.027,32.83 C66.027,50.765 51.436,65.357 33.5,65.357 L33.5,65.357 Z" stroke="#0088CC" stroke-width="6" fill-opacity="0" fill="#FFFFFF" opacity="0.5"></path>
                    <path d="M46.821,22.9 C44.24,22.9 41.918,24.626 41.174,27.096 C40.891,28.038 41.425,29.033 42.367,29.316 C43.304,29.601 44.304,29.067 44.588,28.123 C44.882,27.146 45.8,26.464 46.821,26.464 C47.841,26.464 48.759,27.146 49.052,28.123 C49.284,28.894 49.992,29.392 50.758,29.392 C50.928,29.392 51.102,29.368 51.273,29.316 C52.215,29.032 52.75,28.038 52.466,27.096 C51.723,24.625 49.401,22.9 46.821,22.9 L46.821,22.9 Z" fill="#0088CC" transform="translate(46.820182, 26.146345) scale(-1, 1) translate(-46.820182, -26.146345) "></path>
                    <path d="M24.824,27.096 C24.08,24.625 21.759,22.9 19.179,22.9 C16.599,22.9 14.277,24.626 13.533,27.096 C13.249,28.038 13.783,29.033 14.726,29.316 C15.67,29.601 16.663,29.066 16.946,28.123 C17.24,27.146 18.158,26.464 19.178,26.464 C20.198,26.464 21.116,27.146 21.41,28.123 C21.642,28.894 22.35,29.392 23.116,29.392 C23.286,29.392 23.459,29.368 23.63,29.316 C24.574,29.033 25.108,28.039 24.824,27.096 L24.824,27.096 Z" fill="#0088CC" transform="translate(19.178497, 26.146304) scale(-1, 1) translate(-19.178497, -26.146304) "></path>
                    <path d="M40.088,48.915 C39.144,48.636 38.151,49.166 37.867,50.108 C37.227,52.237 35.225,53.723 33,53.723 C30.775,53.723 28.774,52.236 28.132,50.107 C27.848,49.166 26.855,48.63 25.911,48.916 C24.969,49.199 24.434,50.193 24.719,51.137 C25.81,54.759 29.216,57.288 33,57.288 C36.786,57.288 40.191,54.758 41.281,51.136 C41.564,50.193 41.03,49.199 40.088,48.915 L40.088,48.915 Z" fill="#0088CC"></path>
                </g>
            </g>
        </g>
    </g>
</svg>