<?xml version="1.0" encoding="UTF-8" standalone="no"?>
<svg width="100px" height="39px" viewBox="0 0 100 39" version="1.1" xmlns="http://www.w3.org/2000/svg" xmlns:xlink="http://www.w3.org/1999/xlink">
    <!-- Generator: Sketch 3.8.3 (29802) - http://www.bohemiancoding.com/sketch -->
    <title>german</title>
    <desc>Created with Sketch.</desc>
    <defs></defs>
    <g id="Page-1" stroke="none" stroke-width="1" fill="none" fill-rule="evenodd">
        <g id="noun_434710_cc" fill="#000000">
            <g id="Group">
                <path d="M49.884,38.081 C40.997,38.081 32.586,36.681 26.199,34.14 C25.491,33.858 25.145,33.056 25.427,32.347 C25.709,31.64 26.513,31.29 27.219,31.576 C33.289,33.991 41.338,35.321 49.884,35.321 C50.646,35.321 51.263,35.938 51.263,36.701 C51.263,37.464 50.646,38.081 49.884,38.081 L49.884,38.081 Z" id="Shape"></path>
                <path d="M26.708,34.237 C26.52,34.237 26.327,34.198 26.144,34.116 C14.647,28.963 8.162,20.732 10.372,14.101 C12.749,6.972 23.273,4.038 33.84,7.56 C36.298,8.38 46.601,11.481 50.06,11.634 C50.821,11.668 51.412,12.312 51.378,13.073 C51.345,13.835 50.671,14.434 49.939,14.391 C45.47,14.194 33.087,10.218 32.967,10.178 C23.846,7.137 14.885,9.287 12.989,14.972 C11.516,19.392 15.949,26.521 27.273,31.597 C27.968,31.909 28.279,32.725 27.967,33.42 C27.739,33.935 27.235,34.237 26.708,34.237 L26.708,34.237 Z" id="Shape"></path>
                <path d="M49.885,38.081 C49.123,38.081 48.505,37.464 48.505,36.701 C48.505,35.938 49.123,35.321 49.885,35.321 C58.431,35.321 66.48,33.991 72.55,31.576 C73.262,31.29 74.062,31.639 74.342,32.347 C74.625,33.056 74.28,33.858 73.571,34.14 C67.183,36.681 58.771,38.081 49.885,38.081 L49.885,38.081 Z" id="Shape"></path>
                <path d="M2.538,21.65 C1.831,21.65 1.298,21.532 0.94,21.293 C0.428,20.954 0.102,20.421 0.02,19.796 C-0.177,18.303 1.183,16.304 2.171,15.075 L0.436,11.027 C0.194,10.465 0.352,9.811 0.822,9.421 L4.177,6.637 C4.599,5.253 5.65,2.283 7.147,1.284 C7.601,0.981 8.161,0.916 8.683,1.106 C9.217,1.301 10.84,1.894 13.872,12.344 C14.084,13.076 13.663,13.842 12.931,14.054 C12.197,14.264 11.433,13.845 11.221,13.114 C10.271,9.841 8.937,6.08 8.064,4.399 C7.602,5.226 7.072,6.53 6.711,7.806 C6.635,8.075 6.479,8.315 6.264,8.493 L3.378,10.887 L5.041,14.769 C5.251,15.258 5.161,15.825 4.809,16.224 C4.017,17.125 3.271,18.217 2.939,18.916 C4.496,18.748 7.976,17.671 10.834,16.557 C11.542,16.279 12.343,16.632 12.621,17.341 C12.899,18.05 12.547,18.851 11.837,19.128 C7.533,20.807 4.421,21.65 2.538,21.65 L2.538,21.65 Z" id="Shape"></path>
                <path d="M73.291,34.237 C72.763,34.237 72.26,33.934 72.031,33.422 C71.719,32.727 72.029,31.91 72.725,31.599 C84.048,26.523 88.482,19.393 87.008,14.973 C85.112,9.289 76.149,7.139 67.03,10.18 C66.911,10.22 54.533,14.196 50.059,14.393 C49.31,14.415 48.653,13.837 48.62,13.075 C48.586,12.314 49.176,11.669 49.938,11.636 C53.401,11.483 63.701,8.382 66.157,7.562 C76.722,4.039 87.25,6.971 89.627,14.1 C91.837,20.733 85.352,28.963 73.855,34.117 C73.671,34.198 73.479,34.237 73.291,34.237 L73.291,34.237 Z" id="Shape"></path>
                <path d="M97.462,21.65 C95.578,21.65 92.467,20.807 88.162,19.129 C87.452,18.852 87.102,18.052 87.378,17.342 C87.656,16.631 88.459,16.283 89.165,16.558 C92.021,17.672 95.5,18.748 97.06,18.917 C96.723,18.212 95.969,17.108 95.192,16.226 C94.838,15.826 94.749,15.26 94.959,14.77 L96.622,10.888 L93.735,8.493 C93.521,8.315 93.365,8.076 93.29,7.806 C92.929,6.529 92.398,5.225 91.936,4.399 C91.063,6.081 89.727,9.842 88.777,13.115 C88.564,13.846 87.8,14.266 87.069,14.055 C86.336,13.843 85.915,13.077 86.128,12.345 C89.16,1.895 90.782,1.302 91.315,1.107 C91.835,0.917 92.396,0.982 92.851,1.285 C94.349,2.284 95.398,5.254 95.82,6.638 L99.177,9.422 C99.647,9.812 99.805,10.465 99.564,11.027 L97.83,15.075 C98.817,16.304 100.178,18.303 99.98,19.796 C99.898,20.421 99.572,20.954 99.06,21.293 C98.702,21.532 98.168,21.65 97.462,21.65 L97.462,21.65 Z" id="Shape"></path>
            </g>
        </g>
    </g>
</svg>