<?xml version="1.0" encoding="UTF-8" standalone="no"?>
<svg width="78px" height="30px" viewBox="0 0 78 30" version="1.1" xmlns="http://www.w3.org/2000/svg" xmlns:xlink="http://www.w3.org/1999/xlink">
    <!-- Generator: Sketch 3.8.3 (29802) - http://www.bohemiancoding.com/sketch -->
    <title>glasses</title>
    <desc>Created with Sketch.</desc>
    <defs>
        <path d="M31.401592,3.86716791 C33.3479294,4.55053837 36.4834391,4.54285141 36.726347,4.54054533 C36.9707922,4.54208272 40.1063019,4.55053837 42.053408,3.86716791 C44.0773837,3.15612441 49.7972483,0.583299967 58.6341738,0.255066911 C66.2127445,-0.0262757075 71.1961986,1.18057651 72.6390404,2.01999219 C72.9411378,2.21754698 73.1417674,2.55884786 73.1417674,2.94627049 L73.1417674,7.1249002 C73.1417674,7.70603414 72.8696491,8.17186372 72.1224769,8.83140461 C70.7726473,9.8299403 70.7518925,11.207443 70.4797743,13.4212865 C70.0531482,16.9050153 69.7172282,24.5274017 58.2513634,25.6489287 C47.4596447,26.7058853 42.8728376,20.8607233 41.2032306,16.5091371 C39.5589905,12.2205839 39.5951192,10.1120516 36.7255783,10.1043647 C33.856806,10.1120516 33.8952408,12.2205839 32.2494633,16.5091371 C30.580625,20.8599546 25.9945866,26.7058853 15.2020992,25.6489287 C3.73777185,24.526633 3.40108314,16.9042466 2.97368834,13.4205178 C2.70157007,11.2066743 2.68235268,9.82917161 1.33175437,8.83063592 C0.584582168,8.17109502 0.313232593,7.70526544 0.313232593,7.12413151 L0.313232593,2.94550179 C0.313232593,2.55807917 0.513862166,2.21677829 0.815190872,2.0192235 C2.25880136,1.17980781 7.24148676,-0.0270444032 14.8192888,0.254298216 C23.6577517,0.583299967 29.3768476,3.15535571 31.401592,3.86716791 L31.401592,3.86716791 L31.401592,3.86716791 Z" id="path-1"></path>
        <mask id="mask-2" maskContentUnits="userSpaceOnUse" maskUnits="objectBoundingBox" x="-2" y="-2" width="76.8285348" height="29.5616983">
            <rect x="-1.68676741" y="-1.7873173" width="76.8285348" height="29.5616983" fill="white"></rect>
            <use xlink:href="#path-1" fill="black"></use>
        </mask>
    </defs>
    <g id="Page-1" stroke="none" stroke-width="1" fill="none" fill-rule="evenodd">
        <g id="glasses" transform="translate(2.000000, 2.000000)">
            <g id="Shape">
                <use fill="#0088CC" fill-rule="evenodd" xlink:href="#path-1"></use>
                <use stroke="#0088CC" mask="url(#mask-2)" stroke-width="4" xlink:href="#path-1"></use>
            </g>
            <path d="M68.212122,13.0061909 C68.282842,3.31908789 62.4891827,2.70874352 55.9398955,3.18226006 C40.7381697,4.28149488 42.2486567,7.40163065 42.7636828,13.2798465 C43.2679472,19.0289215 48.1053491,24.3075547 56.2850398,24.3075547 C62.852007,24.3075547 68.1575446,20.5855303 68.212122,13.0061909 L68.212122,13.0061909 L68.212122,13.0061909 Z" id="Path" fill="#FFFFFF"></path>
            <path d="M5.24364668,13.0061909 C5.29822408,20.5855303 10.6022243,24.3075547 17.1691915,24.3075547 C25.3511883,24.3075547 30.1870528,19.0296902 30.6913172,13.2798465 C31.2063433,7.40163065 32.7160616,4.28072619 17.5151045,3.18226006 C10.9658173,2.70874352 5.17292668,3.31908789 5.24364668,13.0061909 L5.24364668,13.0061909 L5.24364668,13.0061909 Z" id="Path" fill="#FFFFFF"></path>
        </g>
    </g>
</svg>