<?xml version="1.0" encoding="UTF-8" standalone="no"?>
<svg width="97px" height="89px" viewBox="0 0 97 89" version="1.1" xmlns="http://www.w3.org/2000/svg" xmlns:xlink="http://www.w3.org/1999/xlink">
    <!-- Generator: Sketch 3.8.3 (29802) - http://www.bohemiancoding.com/sketch -->
    <title>language</title>
    <desc>Created with Sketch.</desc>
    <defs></defs>
    <g id="Page-1" stroke="none" stroke-width="1" fill="none" fill-rule="evenodd">
        <g id="language" transform="translate(48.500000, 45.000000) scale(-1, 1) translate(-48.500000, -45.000000) translate(3.000000, 3.000000)" stroke="#0088CC">
            <g id="Group">
                <path d="M45.061,0.484 C20.195,0.484 0.042,17.279 0.042,37.993 C0.042,51.433 8.522,63.204 21.247,69.83 C19.738,73.976 17.13,77.041 13.738,79.789 C13.106,80.298 13.001,81.233 13.363,81.965 C13.679,82.609 14.334,83.012 15.047,83.012 C22.358,83.012 30.358,79.532 36.907,74.883 C39.551,75.286 42.276,75.508 45.059,75.508 C69.913,75.508 90.077,58.712 90.077,37.993 C90.079,17.28 69.915,0.484 45.061,0.484 L45.061,0.484 Z" id="Shape" stroke-width="6"></path>
                <path d="M60.566,42.807 C57.917,42.807 55.759,40.655 55.759,37.994 C55.759,35.339 57.916,33.191 60.566,33.191 C63.226,33.191 65.383,35.338 65.383,37.994 C65.384,40.655 63.227,42.807 60.566,42.807 L60.566,42.807 Z" id="Path" stroke-width="3" fill="#0088CC"></path>
                <path d="M45.061,42.807 C42.401,42.807 40.244,40.655 40.244,37.994 C40.244,35.339 42.401,33.191 45.061,33.191 C47.711,33.191 49.868,35.338 49.868,37.994 C49.868,40.655 47.711,42.807 45.061,42.807 L45.061,42.807 Z" id="Path" stroke-width="3" fill="#0088CC"></path>
                <path d="M29.545,42.807 C26.885,42.807 24.738,40.655 24.738,37.994 C24.738,35.339 26.885,33.191 29.545,33.191 C32.205,33.191 34.353,35.338 34.353,37.994 C34.353,40.655 32.206,42.807 29.545,42.807 L29.545,42.807 Z" id="Path" stroke-width="3" fill="#0088CC"></path>
            </g>
        </g>
    </g>
</svg>