<?xml version="1.0" encoding="UTF-8" standalone="no"?>
<svg width="96px" height="28px" viewBox="0 0 96 28" version="1.1" xmlns="http://www.w3.org/2000/svg" xmlns:xlink="http://www.w3.org/1999/xlink">
    <!-- Generator: Sketch 3.8.3 (29802) - http://www.bohemiancoding.com/sketch -->
    <title>more</title>
    <desc>Created with Sketch.</desc>
    <defs></defs>
    <g id="Page-1" stroke="none" stroke-width="1" fill="none" fill-rule="evenodd">
        <g id="more" fill="#000000">
            <path d="M48,0.882 C40.767,0.882 34.882,6.767 34.882,14 C34.882,21.233 40.767,27.118 48,27.118 C55.233,27.118 61.118,21.233 61.118,14 C61.118,6.767 55.233,0.882 48,0.882 L48,0.882 Z M48,23.118 C42.973,23.118 38.882,19.028 38.882,14 C38.882,8.972 42.972,4.882 48,4.882 C53.028,4.882 57.118,8.972 57.118,14 C57.118,19.028 53.027,23.118 48,23.118 L48,23.118 Z" id="Shape"></path>
            <path d="M82,0.882 C74.767,0.882 68.882,6.767 68.882,14 C68.882,21.233 74.767,27.118 82,27.118 C89.233,27.118 95.118,21.233 95.118,14 C95.118,6.767 89.233,0.882 82,0.882 L82,0.882 Z M82,23.118 C76.973,23.118 72.882,19.028 72.882,14 C72.882,8.972 76.972,4.882 82,4.882 C87.028,4.882 91.118,8.972 91.118,14 C91.118,19.028 87.027,23.118 82,23.118 L82,23.118 Z" id="Shape"></path>
            <path d="M14,0.882 C6.767,0.882 0.882,6.767 0.882,14 C0.882,21.233 6.767,27.118 14,27.118 C21.233,27.118 27.118,21.233 27.118,14 C27.118,6.767 21.233,0.882 14,0.882 L14,0.882 Z M14,23.118 C8.973,23.118 4.882,19.028 4.882,14 C4.882,8.972 8.972,4.882 14,4.882 C19.028,4.882 23.118,8.972 23.118,14 C23.118,19.028 19.027,23.118 14,23.118 L14,23.118 Z" id="Shape"></path>
        </g>
    </g>
</svg>