<?xml version="1.0" standalone="no"?>
<!DOCTYPE svg PUBLIC "-//W3C//DTD SVG 1.1//EN" "http://www.w3.org/Graphics/SVG/1.1/DTD/svg11.dtd">
<svg width="100%" height="100%" viewBox="0 0 1007 304" version="1.1" xmlns="http://www.w3.org/2000/svg" xmlns:xlink="http://www.w3.org/1999/xlink" xml:space="preserve" style="fill-rule:evenodd;clip-rule:evenodd;stroke-linejoin:round;stroke-miterlimit:1.41421;">
    <g transform="matrix(1,0,0,1,-134.51,-234.289)">
        <g>
            <g transform="matrix(1.08602,0,0,1.08602,36.7578,98.2232)">
                <g id="Ebene3">
                    <circle cx="229.52" cy="264.799" r="139.51" style="fill:white;"/>
                </g>
            </g>
            <g id="shoe" transform="matrix(0.725975,0,0,0.725975,-135.973,254.615)">
                <g transform="matrix(4.72476,0,0,4.72476,352.125,-35.8299)">
                    <path d="M69.8,56L63.2,56C60.8,49 58.2,43 56.7,39.5L56.5,39.2C56.3,38.8 55.8,38.6 55.4,38.7C55.3,38.7 55,38.7 55,38.7C53,38.7 49.2,37.4 46.4,35.5C43.2,33.4 41.5,30.7 41.5,28.3C41.5,24.3 39.6,21.5 36.9,21.5C35.4,21.5 33.8,22.3 32.2,23.9C30.6,25.5 21.1,35.1 21.1,35.1C20.9,35.3 20.8,35.5 20.8,35.8C20.8,36.1 20.9,36.3 21.1,36.5L53,67.7C53.2,67.9 53.4,67.8 53.7,67.8L76,67.8C76.6,67.8 77,67.7 77,67.2L77,62.9C77,59.1 74.1,56 69.8,56ZM62.5,58L69.8,58C72.3,58 74.1,59 74.7,61L56,61L51.3,56.5L60.1,53.3C60.6,54.7 61.1,55.9 61.5,57.4C61.7,57.9 62.1,58 62.5,58ZM57.9,47.4C57.8,47.4 57.8,47.4 57.9,47.4L46.6,51.2C46.4,51.3 46.3,51.4 46.2,51.5L43.9,49.2L56.7,44.5C57,45.4 57.4,46.4 57.9,47.4ZM58.4,49.3C58.5,49.3 58.5,49.2 58.5,49.2C58.8,49.9 59.1,50.7 59.4,51.5L50.3,55C50.1,55.1 50,55.2 49.9,55.3L47.6,53L58.4,49.3ZM33.7,25.5C34.9,24.3 36,23.7 37,23.7C38.6,23.7 39.6,25.7 39.6,28.5C39.6,31.6 41.7,34.7 45.4,37.3C48.4,39.4 52.1,40.7 54.9,40.8C55.2,41.4 55.5,42 55.8,42.7L42.7,47.5C42.5,47.6 42.4,47.7 42.3,47.8L26.9,32.3C29.7,29.5 32.8,26.3 33.7,25.5ZM54.2,66L23.3,35.8C23.8,35.3 24.6,34.5 25.5,33.6L54.9,62.8L55.2,63L75,63L75,66L54.2,66Z" style="fill:rgb(0,136,204);fill-rule:nonzero;"/>
                </g>
                <g transform="matrix(4.72476,0,0,4.72476,352.125,-35.8299)">
                    <path d="M21,50L26,50C26.6,50 27,49.6 27,49C27,48.4 26.6,48 26,48L21,48C20.4,48 20,48.4 20,49C20,49.6 20.4,50 21,50Z" style="fill:rgb(0,136,204);fill-rule:nonzero;"/>
                </g>
                <g transform="matrix(4.72476,0,0,4.72476,352.125,-35.8299)">
                    <path d="M21,55L31,55C31.6,55 32,54.6 32,54C32,53.4 31.6,53 31,53L21,53C20.4,53 20,53.4 20,54C20,54.6 20.4,55 21,55Z" style="fill:rgb(0,136,204);fill-rule:nonzero;"/>
                </g>
                <g transform="matrix(4.72476,0,0,4.72476,352.125,-35.8299)">
                    <path d="M36,58L21,58C20.4,58 20,58.4 20,59C20,59.6 20.4,60 21,60L36,60C36.6,60 37,59.6 37,59C37,58.4 36.5,58 36,58Z" style="fill:rgb(0,136,204);fill-rule:nonzero;"/>
                </g>
            </g>
            <g transform="matrix(0.889623,0,0,0.889623,145.528,333.568)">
                <g id="Ebene5">
                    <g>
                        <path d="M367.621,103.078L367.621,29.206L378.061,29.206C379.885,29.206 381.157,29.542 381.877,30.214C382.597,30.886 383.077,32.038 383.317,33.67L384.397,42.598C387.037,38.038 390.133,34.438 393.685,31.798C397.237,29.158 401.221,27.838 405.637,27.838C409.285,27.838 412.309,28.678 414.709,30.358L412.405,43.678C412.261,44.542 411.949,45.154 411.469,45.514C410.989,45.874 410.341,46.054 409.525,46.054C408.805,46.054 407.821,45.886 406.573,45.55C405.325,45.214 403.669,45.046 401.605,45.046C397.909,45.046 394.741,46.066 392.101,48.106C389.461,50.146 387.229,53.134 385.405,57.07L385.405,103.078L367.621,103.078Z" style="fill:rgb(0,136,204);fill-rule:nonzero;"/>
                        <path d="M442.717,29.206L442.717,76.15C442.717,80.662 443.761,84.154 445.849,86.626C447.937,89.098 451.069,90.334 455.245,90.334C458.317,90.334 461.197,89.65 463.885,88.282C466.573,86.914 469.117,85.03 471.517,82.63L471.517,29.206L489.301,29.206L489.301,103.078L478.429,103.078C476.125,103.078 474.613,101.998 473.893,99.838L472.669,93.934C471.133,95.47 469.549,96.874 467.917,98.146C466.285,99.418 464.545,100.498 462.697,101.386C460.849,102.274 458.857,102.97 456.721,103.474C454.585,103.978 452.293,104.23 449.845,104.23C445.813,104.23 442.249,103.546 439.153,102.178C436.057,100.81 433.453,98.878 431.341,96.382C429.229,93.886 427.633,90.922 426.553,87.49C425.473,84.058 424.933,80.278 424.933,76.15L424.933,29.206L442.717,29.206Z" style="fill:rgb(0,136,204);fill-rule:nonzero;"/>
                        <path d="M508.309,103.078L508.309,29.206L519.181,29.206C521.485,29.206 522.997,30.286 523.717,32.446L524.941,38.278C526.429,36.742 528.001,35.35 529.657,34.102C531.313,32.854 533.065,31.774 534.913,30.862C536.761,29.95 538.741,29.254 540.853,28.774C542.965,28.294 545.269,28.054 547.765,28.054C551.797,28.054 555.373,28.738 558.493,30.106C561.613,31.474 564.217,33.394 566.305,35.866C568.393,38.338 569.977,41.29 571.057,44.722C572.137,48.154 572.677,51.934 572.677,56.062L572.677,103.078L554.893,103.078L554.893,56.062C554.893,51.55 553.849,48.058 551.761,45.586C549.673,43.114 546.541,41.878 542.365,41.878C539.293,41.878 536.413,42.574 533.725,43.966C531.037,45.358 528.493,47.254 526.093,49.654L526.093,103.078L508.309,103.078Z" style="fill:rgb(0,136,204);fill-rule:nonzero;"/>
                        <path d="M624.589,103.078L608.461,103.078L579.085,29.206L593.845,29.206C595.141,29.206 596.233,29.518 597.121,30.142C598.009,30.766 598.621,31.558 598.957,32.518L613.213,71.974C614.029,74.278 614.713,76.534 615.265,78.742C615.817,80.95 616.309,83.158 616.741,85.366C617.173,83.158 617.665,80.95 618.217,78.742C618.769,76.534 619.477,74.278 620.341,71.974L634.957,32.518C635.293,31.558 635.893,30.766 636.757,30.142C637.621,29.518 638.653,29.206 639.853,29.206L653.893,29.206L624.589,103.078Z" style="fill:rgb(0,136,204);fill-rule:nonzero;"/>
                        <path d="M692.557,28.054C697.213,28.054 701.497,28.798 705.409,30.286C709.321,31.774 712.693,33.946 715.525,36.802C718.357,39.658 720.565,43.162 722.149,47.314C723.733,51.466 724.525,56.206 724.525,61.534C724.525,62.878 724.465,63.994 724.345,64.882C724.225,65.77 724.009,66.466 723.697,66.97C723.385,67.474 722.965,67.834 722.437,68.05C721.909,68.266 721.237,68.374 720.421,68.374L674.773,68.374C675.301,75.958 677.341,81.526 680.893,85.078C684.445,88.63 689.149,90.406 695.005,90.406C697.885,90.406 700.369,90.07 702.457,89.398C704.545,88.726 706.369,87.982 707.929,87.166C709.489,86.35 710.857,85.606 712.033,84.934C713.209,84.262 714.349,83.926 715.453,83.926C716.173,83.926 716.797,84.07 717.325,84.358C717.853,84.646 718.309,85.054 718.693,85.582L723.877,92.062C721.909,94.366 719.701,96.298 717.253,97.858C714.805,99.418 712.249,100.666 709.585,101.602C706.921,102.538 704.209,103.198 701.449,103.582C698.689,103.966 696.013,104.158 693.421,104.158C688.285,104.158 683.509,103.306 679.093,101.602C674.677,99.898 670.837,97.378 667.573,94.042C664.309,90.706 661.741,86.578 659.869,81.658C657.997,76.738 657.061,71.038 657.061,64.558C657.061,59.518 657.877,54.778 659.509,50.338C661.141,45.898 663.481,42.034 666.529,38.746C669.577,35.458 673.297,32.854 677.689,30.934C682.081,29.014 687.037,28.054 692.557,28.054ZM692.917,40.798C687.733,40.798 683.677,42.262 680.749,45.19C677.821,48.118 675.949,52.27 675.133,57.646L708.541,57.646C708.541,55.342 708.229,53.17 707.605,51.13C706.981,49.09 706.021,47.302 704.725,45.766C703.429,44.23 701.797,43.018 699.829,42.13C697.861,41.242 695.557,40.798 692.917,40.798Z" style="fill:rgb(0,136,204);fill-rule:nonzero;"/>
                        <path d="M738.997,103.078L738.997,29.206L749.437,29.206C751.261,29.206 752.533,29.542 753.253,30.214C753.973,30.886 754.453,32.038 754.693,33.67L755.773,42.598C758.413,38.038 761.509,34.438 765.061,31.798C768.613,29.158 772.597,27.838 777.013,27.838C780.661,27.838 783.685,28.678 786.085,30.358L783.781,43.678C783.637,44.542 783.325,45.154 782.845,45.514C782.365,45.874 781.717,46.054 780.901,46.054C780.181,46.054 779.197,45.886 777.949,45.55C776.701,45.214 775.045,45.046 772.981,45.046C769.285,45.046 766.117,46.066 763.477,48.106C760.837,50.146 758.605,53.134 756.781,57.07L756.781,103.078L738.997,103.078Z" style="fill:rgb(0,136,204);fill-rule:nonzero;"/>
                        <path d="M822.085,104.23C815.701,104.23 810.781,102.418 807.325,98.794C803.869,95.17 802.141,90.166 802.141,83.782L802.141,42.526L794.653,42.526C793.693,42.526 792.865,42.214 792.169,41.59C791.473,40.966 791.125,40.03 791.125,38.782L791.125,31.726L803.005,29.782L806.749,9.622C806.941,8.662 807.385,7.918 808.081,7.39C808.777,6.862 809.653,6.598 810.709,6.598L819.925,6.598L819.925,29.854L839.365,29.854L839.365,42.526L819.925,42.526L819.925,82.558C819.925,84.862 820.501,86.662 821.653,87.958C822.805,89.254 824.341,89.902 826.261,89.902C827.365,89.902 828.289,89.77 829.033,89.506C829.777,89.242 830.425,88.966 830.977,88.678C831.529,88.39 832.021,88.114 832.453,87.85C832.885,87.586 833.317,87.454 833.749,87.454C834.277,87.454 834.709,87.586 835.045,87.85C835.381,88.114 835.741,88.51 836.125,89.038L841.453,97.678C838.861,99.838 835.885,101.47 832.525,102.574C829.165,103.678 825.685,104.23 822.085,104.23Z" style="fill:rgb(0,136,204);fill-rule:nonzero;"/>
                        <path d="M884.077,28.054C888.733,28.054 893.017,28.798 896.929,30.286C900.841,31.774 904.213,33.946 907.045,36.802C909.877,39.658 912.085,43.162 913.669,47.314C915.253,51.466 916.045,56.206 916.045,61.534C916.045,62.878 915.985,63.994 915.865,64.882C915.745,65.77 915.529,66.466 915.217,66.97C914.905,67.474 914.485,67.834 913.957,68.05C913.429,68.266 912.757,68.374 911.941,68.374L866.293,68.374C866.821,75.958 868.861,81.526 872.413,85.078C875.965,88.63 880.669,90.406 886.525,90.406C889.405,90.406 891.889,90.07 893.977,89.398C896.065,88.726 897.889,87.982 899.449,87.166C901.009,86.35 902.377,85.606 903.553,84.934C904.729,84.262 905.869,83.926 906.973,83.926C907.693,83.926 908.317,84.07 908.845,84.358C909.373,84.646 909.829,85.054 910.213,85.582L915.397,92.062C913.429,94.366 911.221,96.298 908.773,97.858C906.325,99.418 903.769,100.666 901.105,101.602C898.441,102.538 895.729,103.198 892.969,103.582C890.209,103.966 887.533,104.158 884.941,104.158C879.805,104.158 875.029,103.306 870.613,101.602C866.197,99.898 862.357,97.378 859.093,94.042C855.829,90.706 853.261,86.578 851.389,81.658C849.517,76.738 848.581,71.038 848.581,64.558C848.581,59.518 849.397,54.778 851.029,50.338C852.661,45.898 855.001,42.034 858.049,38.746C861.097,35.458 864.817,32.854 869.209,30.934C873.601,29.014 878.557,28.054 884.077,28.054ZM884.437,40.798C879.253,40.798 875.197,42.262 872.269,45.19C869.341,48.118 867.469,52.27 866.653,57.646L900.061,57.646C900.061,55.342 899.749,53.17 899.125,51.13C898.501,49.09 897.541,47.302 896.245,45.766C894.949,44.23 893.317,43.018 891.349,42.13C889.381,41.242 887.077,40.798 884.437,40.798Z" style="fill:rgb(0,136,204);fill-rule:nonzero;"/>
                        <path d="M930.517,103.078L930.517,29.206L940.957,29.206C942.781,29.206 944.053,29.542 944.773,30.214C945.493,30.886 945.973,32.038 946.213,33.67L947.293,42.598C949.933,38.038 953.029,34.438 956.581,31.798C960.133,29.158 964.117,27.838 968.533,27.838C972.181,27.838 975.205,28.678 977.605,30.358L975.301,43.678C975.157,44.542 974.845,45.154 974.365,45.514C973.885,45.874 973.237,46.054 972.421,46.054C971.701,46.054 970.717,45.886 969.469,45.55C968.221,45.214 966.565,45.046 964.501,45.046C960.805,45.046 957.637,46.066 954.997,48.106C952.357,50.146 950.125,53.134 948.301,57.07L948.301,103.078L930.517,103.078Z" style="fill:rgb(0,136,204);fill-rule:nonzero;"/>
                        <path d="M975.301,93.286C975.301,91.798 975.577,90.382 976.129,89.038C976.681,87.694 977.449,86.542 978.433,85.582C979.417,84.622 980.581,83.854 981.925,83.278C983.269,82.702 984.709,82.414 986.245,82.414C987.733,82.414 989.149,82.702 990.493,83.278C991.837,83.854 992.989,84.622 993.949,85.582C994.909,86.542 995.677,87.694 996.253,89.038C996.829,90.382 997.117,91.798 997.117,93.286C997.117,94.822 996.829,96.25 996.253,97.57C995.677,98.89 994.909,100.03 993.949,100.99C992.989,101.95 991.837,102.706 990.493,103.258C989.149,103.81 987.733,104.086 986.245,104.086C984.709,104.086 983.269,103.81 981.925,103.258C980.581,102.706 979.417,101.95 978.433,100.99C977.449,100.03 976.681,98.89 976.129,97.57C975.577,96.25 975.301,94.822 975.301,93.286Z" style="fill:rgb(0,136,204);fill-rule:nonzero;"/>
                        <path d="M1030.88,29.206L1030.88,103.078L1013.1,103.078L1013.1,29.206L1030.88,29.206ZM1033.55,7.678C1033.55,9.214 1033.24,10.654 1032.61,11.998C1031.99,13.342 1031.16,14.518 1030.13,15.526C1029.1,16.534 1027.88,17.338 1026.49,17.938C1025.1,18.538 1023.61,18.838 1022.03,18.838C1020.49,18.838 1019.04,18.538 1017.67,17.938C1016.31,17.338 1015.12,16.534 1014.11,15.526C1013.1,14.518 1012.3,13.342 1011.7,11.998C1011.1,10.654 1010.8,9.214 1010.8,7.678C1010.8,6.094 1011.1,4.606 1011.7,3.214C1012.3,1.822 1013.1,0.622 1014.11,-0.386C1015.12,-1.394 1016.31,-2.198 1017.67,-2.798C1019.04,-3.398 1020.49,-3.698 1022.03,-3.698C1023.61,-3.698 1025.1,-3.398 1026.49,-2.798C1027.88,-2.198 1029.1,-1.394 1030.13,-0.386C1031.16,0.622 1031.99,1.822 1032.61,3.214C1033.24,4.606 1033.55,6.094 1033.55,7.678Z" style="fill:rgb(0,136,204);fill-rule:nonzero;"/>
                        <path d="M1082.51,28.054C1088.03,28.054 1093.03,28.942 1097.52,30.718C1102.01,32.494 1105.84,35.014 1109.01,38.278C1112.17,41.542 1114.62,45.526 1116.35,50.23C1118.08,54.934 1118.94,60.19 1118.94,65.998C1118.94,71.854 1118.08,77.134 1116.35,81.838C1114.62,86.542 1112.17,90.55 1109.01,93.862C1105.84,97.174 1102.01,99.718 1097.52,101.494C1093.03,103.27 1088.03,104.158 1082.51,104.158C1076.99,104.158 1071.97,103.27 1067.46,101.494C1062.95,99.718 1059.1,97.174 1055.9,93.862C1052.71,90.55 1050.24,86.542 1048.49,81.838C1046.74,77.134 1045.86,71.854 1045.86,65.998C1045.86,60.19 1046.74,54.934 1048.49,50.23C1050.24,45.526 1052.71,41.542 1055.9,38.278C1059.1,35.014 1062.95,32.494 1067.46,30.718C1071.97,28.942 1076.99,28.054 1082.51,28.054ZM1082.51,90.478C1088.65,90.478 1093.2,88.414 1096.15,84.286C1099.11,80.158 1100.58,74.11 1100.58,66.142C1100.58,58.174 1099.11,52.102 1096.15,47.926C1093.2,43.75 1088.65,41.662 1082.51,41.662C1076.27,41.662 1071.66,43.762 1068.68,47.962C1065.71,52.162 1064.22,58.222 1064.22,66.142C1064.22,74.062 1065.71,80.098 1068.68,84.25C1071.66,88.402 1076.27,90.478 1082.51,90.478Z" style="fill:rgb(0,136,204);fill-rule:nonzero;"/>
                    </g>
                </g>
            </g>
        </g>
    </g>
</svg>
