<?xml version="1.0" encoding="UTF-8" standalone="no"?>
<svg width="91px" height="98px" viewBox="0 0 91 98" version="1.1" xmlns="http://www.w3.org/2000/svg" xmlns:xlink="http://www.w3.org/1999/xlink">
    <!-- Generator: Sketch 3.8.3 (29802) - http://www.bohemiancoding.com/sketch -->
    <title>share</title>
    <desc>Created with Sketch.</desc>
    <defs></defs>
    <g id="Page-1" stroke="none" stroke-width="1" fill="none" fill-rule="evenodd">
        <g id="share" fill="#0088CC">
            <g id="Group">
                <path d="M61.4561644,97.2328767 L18.6986301,97.2328767 C8.35205479,97.2328767 0,88.8808219 0,78.5342466 L0,35.7767123 C0,25.430137 8.35205479,17.0780822 18.6986301,17.0780822 C20.8178082,17.0780822 22.4383562,18.6986301 22.4383562,20.8178082 C22.4383562,22.9369863 20.8178082,24.5575342 18.6986301,24.5575342 C12.4657534,24.5575342 7.47945205,29.5438356 7.47945205,35.7767123 L7.47945205,78.5342466 C7.47945205,84.7671233 12.4657534,89.7534247 18.6986301,89.7534247 L61.4561644,89.7534247 C67.6890411,89.7534247 72.6753425,84.7671233 72.6753425,78.5342466 L72.6753425,53.2287671 C72.6753425,51.109589 74.2958904,49.4890411 76.4150685,49.4890411 C78.5342466,49.4890411 80.1547945,51.109589 80.1547945,53.2287671 L80.1547945,78.5342466 C80.1547945,88.8808219 71.6780822,97.2328767 61.4561644,97.2328767 L61.4561644,97.2328767 Z" id="Shape"></path>
                <path d="M77.4123288,24.9315068 L43.3808219,24.9315068 C40.2643836,24.9315068 37.7712329,27.4246575 37.7712329,30.5410959 L37.7712329,48.6164384 C37.7712329,50.7356164 36.0260274,52.3561644 34.0315068,52.3561644 C31.9123288,52.3561644 30.2917808,50.7356164 30.2917808,48.6164384 L30.2917808,30.5410959 C30.2917808,23.3109589 36.1506849,17.4520548 43.3808219,17.4520548 L77.3645278,17.4520548 L67.0657534,7.23013699 C65.569863,5.73424658 65.569863,3.36575342 67.0657534,1.99452055 C68.5616438,0.498630137 70.930137,0.498630137 72.3013699,1.99452055 L88.2055805,17.8987311 C89.3664635,18.5216246 90.1273973,19.739636 90.1273973,21.1917808 C90.1273973,21.1998441 90.1273738,21.2079001 90.1273269,21.2159488 C90.1289629,21.4786129 90.102055,21.7402288 90.0466033,21.995868 C89.8479809,22.9615896 89.2950042,23.7720987 88.5199587,24.2951098 L73.4232877,39.3917808 C72.6753425,40.139726 71.6780822,40.5136986 70.8054795,40.5136986 C69.8082192,40.5136986 68.9356164,40.139726 68.1876712,39.3917808 C66.6917808,37.8958904 66.6917808,35.5273973 68.1876712,34.1561644 L77.4123288,24.9315068 Z" id="Combined-Shape" fill-opacity="0.5"></path>
            </g>
        </g>
    </g>
</svg>