<?xml version="1.0" encoding="UTF-8" standalone="no"?>
<svg width="43px" height="37px" viewBox="0 0 43 37" version="1.1" xmlns="http://www.w3.org/2000/svg" xmlns:xlink="http://www.w3.org/1999/xlink">
    <!-- Generator: Sketch 3.8.3 (29802) - http://www.bohemiancoding.com/sketch -->
    <title>share</title>
    <desc>Created with Sketch.</desc>
    <defs></defs>
    <g id="Page-1" stroke="none" stroke-width="1" fill="none" fill-rule="evenodd">
        <g id="share" fill="#0088CC">
            <g id="Group">
                <path d="M39.9794947,4.14603852 C37.710129,1.72829336 34.9055477,0.641802042 32.1671454,0.649431004 C29.7744167,0.650066751 27.4420845,1.44856476 25.4464305,2.78426883 C23.960934,3.77984835 22.657912,5.07740762 21.6536599,6.5911208 C20.6487652,5.07804336 19.3457432,3.7804841 17.8602467,2.78426883 C15.8652353,1.44856476 13.5322605,0.650066751 11.1401743,0.649431004 C8.40177206,0.641802042 5.5965482,1.72829336 3.32782501,4.14603852 C1.26277931,6.32537863 0.300290687,8.87472338 0.308000876,11.4838283 C0.309285907,13.8348201 1.05653175,16.2163277 2.32164531,18.5450683 C3.58932892,20.8744446 5.3806629,23.161226 7.53244822,25.3367516 C10.1995312,28.0316824 13.6215702,30.764758 16.3869581,32.8404713 C19.1517034,34.9136417 21.2572276,36.3224567 21.2675079,36.3288141 C21.272648,36.3326286 21.2790732,36.3345359 21.2842133,36.3377146 C21.3156966,36.3580585 21.3491074,36.3739522 21.3818757,36.3904816 C21.4095039,36.4038323 21.4364895,36.4197259 21.4654027,36.4305336 C21.494316,36.4413413 21.5238717,36.4483345 21.5527849,36.4565993 C21.5874807,36.4674069 21.6215341,36.4782146 21.6568724,36.4852079 C21.6845006,36.4902938 21.7127713,36.4902938 21.741042,36.4934726 C21.7783079,36.4966513 21.8142888,36.5017373 21.8515547,36.5017373 C21.8823955,36.5011015 21.9125937,36.4953798 21.9434345,36.4928368 C21.9774878,36.4890223 22.0115411,36.4871151 22.0455945,36.4801219 C22.0751502,36.4744002 22.1040634,36.4635925 22.1336191,36.454692 C22.168315,36.4438843 22.2023683,36.4356196 22.2357792,36.4216332 C22.2601948,36.4114612 22.2826828,36.3974748 22.3058134,36.3853956 C22.3430793,36.3663232 22.3803452,36.3472508 22.4150411,36.3237282 C22.4201812,36.3205494 22.4253213,36.3186422 22.4291764,36.3154635 C22.4394567,36.3084702 24.450531,34.9009268 27.1201841,32.8290279 C29.7904796,30.7552218 33.1167838,28.0227819 35.7761565,25.3361158 C37.9279419,23.1605902 39.7192758,20.8738089 40.9863169,18.5444325 C42.2514305,16.2156919 42.9986763,13.8335486 42.9999614,11.4831926 C43.007029,8.87472338 42.0445404,6.32537863 39.9794947,4.14603852 L39.9794947,4.14603852 Z M39.1866303,17.5876336 C38.0378121,19.7021275 36.3627734,21.8541305 34.3150757,23.9228507 C31.7662156,26.5001683 28.4893852,29.1982778 25.8589256,31.2396608 C24.5430533,32.2606702 23.3884524,33.1195642 22.5634622,33.7216164 C22.2736876,33.9333201 22.027604,34.1113292 21.8264966,34.2556438 C20.9526752,33.654863 19.1819017,32.414521 17.1033632,30.8391403 C14.4825413,28.853703 11.3734075,26.3310596 8.99160154,23.9228507 C6.94390377,21.8541305 5.26950767,19.7021275 4.12004695,17.5876336 C2.96865869,15.4718682 2.34927348,13.4025123 2.35055852,11.4838283 C2.35826871,9.3515335 3.08109895,7.38262559 4.82167418,5.52433763 C6.7453664,3.49376228 8.93120506,2.67746337 11.1395318,2.67047015 C13.0657941,2.66919866 15.017757,3.32083915 16.7146411,4.45819021 C18.4108828,5.59363404 19.8404804,7.20906671 20.7290797,9.08070536 C20.7361473,9.09532753 20.7457851,9.10677097 20.7534953,9.12075741 C20.7708432,9.15254475 20.7894761,9.18369634 20.8093941,9.21357644 C20.8273846,9.23964206 20.8460175,9.26507193 20.865293,9.28923031 C20.886496,9.31529593 20.9096266,9.33945431 20.9333997,9.36297694 C20.9571728,9.38713532 20.9815884,9.40938646 21.0079315,9.43036611 C21.0323471,9.45007426 21.0580477,9.46851092 21.0843909,9.48567608 C21.1145891,9.50601998 21.1460724,9.52445664 21.1781982,9.54098605 C21.1923335,9.54797927 21.2038988,9.55815122 21.2186767,9.56514443 C21.232812,9.5715019 21.2469474,9.57404489 21.2610827,9.57976661 C21.2944935,9.59311729 21.3279044,9.60519648 21.3632427,9.61536843 C21.3940835,9.62490463 21.4249242,9.6325336 21.455765,9.63889106 C21.4885333,9.64524853 21.5213016,9.64906301 21.5547124,9.65224175 C21.5874807,9.65542048 21.620249,9.65796347 21.6530173,9.65796347 C21.6857857,9.65796347 21.718554,9.65542048 21.7513223,9.65224175 C21.7847331,9.64906301 21.8181439,9.64524853 21.8502697,9.63889106 C21.8811104,9.6325336 21.9119512,9.62490463 21.942792,9.61536843 C21.9774878,9.60456074 22.0115411,9.59311729 22.044952,9.57976661 C22.0584448,9.57404489 22.0732227,9.5715019 22.087358,9.56514443 C22.1014934,9.55815122 22.1137012,9.54861502 22.127194,9.54098605 C22.1599623,9.52382089 22.1914456,9.50538423 22.2216438,9.48504033 C22.247987,9.46787517 22.2724026,9.45007426 22.2968182,9.43100185 C22.3238038,9.40938646 22.3488619,9.38586383 22.37392,9.3610697 C22.3964081,9.33818282 22.4182536,9.31529593 22.4388141,9.29050181 C22.4600172,9.26507193 22.4792926,9.23837057 22.4985681,9.21039771 C22.5178436,9.18242485 22.535834,9.15381624 22.5512544,9.12330039 C22.5596071,9.10867822 22.5698874,9.09596328 22.5775975,9.08006961 C23.4655543,7.20843096 24.8951519,5.59299829 26.5913936,4.45755447 C28.2882777,3.32083915 30.2402406,2.66919866 32.1665029,2.6698344 C34.3748296,2.67746337 36.5606683,3.49312654 38.4843605,5.52370189 C40.2249357,7.3813541 40.947766,9.35089775 40.9554762,11.4831926 C40.9567612,13.403148 40.3380185,15.4718682 39.1866303,17.5876336 L39.1866303,17.5876336 Z" id="Shape"></path>
            </g>
        </g>
    </g>
</svg>